<?xml version="1.0" standalone="no"?>
<!DOCTYPE svg PUBLIC "-//W3C//DTD SVG 1.1//EN" "http://www.w3.org/Graphics/SVG/1.1/DTD/svg11.dtd" >
<svg xmlns="http://www.w3.org/2000/svg">
<metadata></metadata>
<defs>
<font id="monocondensedcbold" horiz-adv-x="972" >
<font-face units-per-em="2048" ascent="1716" descent="-332" />
<missing-glyph horiz-adv-x="500" />
<glyph horiz-adv-x="962" />
<glyph horiz-adv-x="962" />
<glyph unicode="&#xd;" horiz-adv-x="962" />
<glyph unicode=" " />
<glyph unicode="!" d="M281 0v236h176v-236h-176zM281 737v553h176v-553l-41 -413h-92z" />
<glyph unicode="&#x22;" d="M199 1268h245l-82 -303h-96zM528 1268h246l-65 -303h-97z" />
<glyph unicode="#" d="M80 215l16 152h127l35 350h-127l16 151h127l33 295h164l-31 -295h162l31 295h160l-29 -295h127l-17 -151h-126l-37 -350h129l-17 -152h-129l-30 -295h-164l30 295h-161l-31 -295h-164l31 295h-125zM389 367h160l35 350h-162z" />
<glyph unicode="$" d="M115 424h164q-2 -42 3.5 -84t19 -84.5t42 -73t68.5 -39.5v445q-132 61 -173 91q-75 54 -95 148q-11 50 -11 123q0 311 279 361v114h151v-118q242 -31 262 -363h-163q0 68 -25.5 133t-73.5 76v-422q114 -37 179 -91t88.5 -118.5t23.5 -156.5q0 -151 -79 -252t-212 -121 v-154h-151v154q-98 9 -168.5 74.5t-101.5 158.5t-27 199zM297 952q0 -78 31.5 -127.5t83.5 -60.5v391q-115 -37 -115 -203zM563 139q41 6 71.5 46.5t43 88t12.5 91.5q0 65 -34.5 125.5t-92.5 64.5v-416z" />
<glyph unicode="%" d="M119 8l559 1274h135l-559 -1274h-135zM158 1006q0 51 6 95t21.5 90t48.5 72.5t81 26.5t82 -27t50 -72t23 -90t7 -95q0 -155 -45.5 -220t-116.5 -65q-157 0 -157 285zM270 1006q0 -168 47 -168q48 0 48 168t-48 168q-47 0 -47 -168zM459 285q0 51 6 95t21.5 90t48.5 72.5 t81 26.5t82 -27t50 -72t23 -90t7 -95q0 -155 -45.5 -220t-116.5 -65q-157 0 -157 285zM571 285q0 -168 47 -168q48 0 48 168t-48 168q-47 0 -47 -168z" />
<glyph unicode="&#x26;" d="M80 367q0 77 17.5 141t49.5 110t64 77.5t74 60.5q2 1 6 4t6 4q-9 18 -29.5 57.5t-25 50.5t-14 38.5t-11.5 51t-2 58.5q0 117 63.5 197.5t170.5 80.5q96 0 158.5 -76t62.5 -194q0 -100 -36 -170t-122 -143l158 -254q18 79 18 145h150q-1 -86 -14.5 -153t-45.5 -162 l180 -291h-192l-76 119q-73 -74 -135.5 -105.5t-146.5 -31.5q-62 0 -114 18.5t-86.5 51t-60.5 71.5t-40 83.5t-20.5 84t-6.5 76.5zM244 367q0 -38 8 -75.5t25 -74.5t51 -60.5t80 -23.5q62 0 107 36t83 101l-219 357q-59 -21 -97 -98.5t-38 -161.5zM365 1022q0 -48 16 -86.5 t49 -87.5q41 30 65.5 77.5t24.5 102.5q0 40 -19.5 79.5t-54.5 39.5q-81 0 -81 -125z" />
<glyph unicode="'" d="M362 1268h246l-73 -303h-97z" />
<glyph unicode="(" d="M211 553q0 58 4.5 107.5t24 129.5t53.5 159t99 186.5t155 222.5h198q-180 -215 -275 -409t-95 -396q0 -68 14.5 -143t50.5 -177.5t114.5 -228.5t190.5 -256h-198q-95 116 -163 232.5t-100 197t-50 166.5t-20.5 123.5t-2.5 85.5z" />
<glyph unicode=")" d="M223 -252q203 249 287 429t84 376q0 174 -79.5 358t-291.5 447h195q82 -109 134.5 -189.5t104 -183t76.5 -209.5t25 -223q0 -391 -340 -805h-195z" />
<glyph unicode="*" d="M172 580l45 141l199 -68v226h141v-226l201 68l43 -141l-197 -68l123 -184l-115 -88l-125 182l-127 -182l-112 88l123 184z" />
<glyph unicode="+" d="M76 561v162h327v385h164v-385h330v-162h-330v-385h-164v385h-327z" />
<glyph unicode="," d="M276 0v242h191v-226q0 -64 -13 -112t-32.5 -74t-46.5 -41.5t-50.5 -19t-48.5 -2.5v131q40 -1 56 24t16 55v23h-72z" />
<glyph unicode="-" d="M121 561v162h731v-162h-731z" />
<glyph unicode="." d="M311 0v242h189v-242h-189z" />
<glyph unicode="/" d="M47 -227l750 1648l127 -88l-754 -1652z" />
<glyph unicode="0" d="M106 645q0 105 12.5 199.5t41 182.5t71.5 152t108 102t146 38t146 -38t108 -102t71.5 -152t41 -182.5t12.5 -199.5q0 -134 -20.5 -251t-63.5 -215t-118.5 -155t-176.5 -57q-74 0 -134 31t-98.5 78.5t-67.5 115t-43.5 128.5t-23 131.5t-10.5 112t-2 81.5zM270 645 q0 -121 13.5 -215.5t35.5 -151.5t51 -94t57 -51t58 -14q27 0 52 9t56 42t53.5 87.5t38 154.5t15.5 233t-17 233.5t-41 153.5t-56 85.5t-55.5 41t-45.5 8.5q-12 0 -24 -2t-34.5 -13.5t-42 -31t-41.5 -59t-37.5 -92.5t-25.5 -137t-10 -187z" />
<glyph unicode="1" d="M182 946v137q40 0 64 0.5t64.5 3.5t66 8.5t56.5 16.5t49 27t31.5 40.5t14.5 55.5l2 55h154v-1290h-164v946h-338z" />
<glyph unicode="2" d="M123 0v82q0 68 18 128t46.5 108t80 100t103 93.5t131.5 98.5q119 85 157.5 143.5t38.5 147.5q0 77 -17.5 132.5t-47.5 83t-61 39t-66 11.5q-228 0 -215 -325h-164v73q0 48 9.5 97.5t36 106t67 100t111 72t159.5 28.5q71 0 129 -20t95 -54t63.5 -74.5t39.5 -88t19 -87 t6 -77.5q0 -66 -16.5 -125t-38.5 -98.5t-58 -80t-61 -61.5t-63 -49q-105 -77 -170 -130.5t-95 -90t-39.5 -55.5t-17.5 -48l-8 -28h575v-152h-747z" />
<glyph unicode="3" d="M111 412h163q0 -29 3 -59.5t15.5 -75t32.5 -77.5t59.5 -57t92.5 -24q86 0 141.5 63t55.5 193q0 15 -1 30t-6 46.5t-17.5 57t-32 51.5t-54.5 41t-80 15h-88v152h90q75 0 112.5 54.5t37.5 138.5q0 51 -12.5 89.5t-30.5 60t-42 35t-44 17.5t-41 4q-26 0 -49 -6.5t-48.5 -26 t-43 -51t-28 -86.5t-7.5 -127h-164q-1 57 4.5 110.5t27 117.5t57 111t101 78.5t152.5 31.5q84 0 149.5 -30t104.5 -80t58.5 -110t19.5 -126q0 -94 -37 -174.5t-100 -102.5v-6q89 -18 132.5 -105t43.5 -208q0 -12 -1 -29t-8 -60t-19 -81t-38.5 -84t-62.5 -78.5t-94 -55 t-130 -22.5q-67 0 -122.5 16.5t-93 43t-66.5 65t-46 77t-27.5 84.5t-14.5 83t-4 76z" />
<glyph unicode="4" d="M80 297v158l473 835h172v-841h160v-152h-160v-297h-164v297h-481zM252 449h309v548z" />
<glyph unicode="5" d="M123 350h164q1 -31 6 -59.5t18.5 -61t34 -56t56 -39t81.5 -15.5q60 0 105 26t70.5 70t38 95.5t12.5 109.5q0 141 -62.5 211.5t-152.5 70.5q-75 0 -125 -35.5t-70 -91.5h-147l84 715h581v-151h-446l-37 -318l-4 -16l6 -2q42 31 81.5 41t102.5 10q85 0 153 -35.5t111 -96 t65.5 -136.5t22.5 -160q0 -208 -104 -333.5t-285 -125.5q-78 0 -141.5 24.5t-103 63t-66.5 90t-38 102.5t-11 103z" />
<glyph unicode="6" d="M117 627q0 68 3.5 129t14.5 133t29 131.5t48.5 116t71 96t99.5 63t131 23.5q76 0 136 -29t92.5 -68t55 -92t30 -87.5t10.5 -67.5h-164q-4 74 -44.5 133t-117.5 59q-100 0 -152 -93t-73 -283l-8 -31l8 -4q66 102 225 102q87 0 155 -37.5t108 -101t60.5 -139.5t20.5 -160 q0 -57 -9 -114.5t-33.5 -120t-62.5 -109.5t-101 -78t-144 -31q-41 0 -76 5.5t-76 22.5t-73.5 45.5t-64 79t-52.5 118.5t-34 167t-13 222zM291 416q0 -74 21 -139t70.5 -111.5t119.5 -46.5q91 0 140.5 86.5t49.5 218.5q0 44 -6.5 85t-24.5 90t-59.5 78.5t-101.5 29.5 q-23 0 -46.5 -5t-54 -23.5t-53.5 -48.5t-39 -85.5t-16 -128.5z" />
<glyph unicode="7" d="M88 1139v151h795v-131q-92 -118 -174 -268.5t-134 -298.5q-101 -287 -126 -592h-164q23 311 135 621q99 273 256 518h-588z" />
<glyph unicode="8" d="M127 381q0 104 42.5 194.5t115.5 118.5v11q-60 41 -88.5 112.5t-28.5 151.5q0 69 19 130t56 111t99.5 79.5t142.5 29.5q73 0 130.5 -24.5t91.5 -62t56.5 -86t31 -92t8.5 -85.5q0 -80 -29 -152t-90 -112v-5q83 -46 121.5 -134.5t38.5 -184.5q0 -48 -7 -96t-30.5 -107.5 t-60.5 -104t-104.5 -75.5t-156.5 -31t-159.5 35.5t-113 95t-64 132t-21.5 151.5zM291 383q0 -112 49.5 -188t144.5 -76q88 0 141.5 76.5t53.5 187.5q0 122 -57.5 183t-137.5 61q-82 0 -138 -61t-56 -183zM332 967q0 -52 14.5 -90.5t32.5 -56.5t43 -28.5t37.5 -12t25.5 -1.5 q73 0 113.5 52t40.5 137q0 57 -15.5 98.5t-40 62t-49 30t-49.5 9.5q-16 0 -32.5 -3t-39.5 -15t-40 -32.5t-29 -59t-12 -90.5z" />
<glyph unicode="9" d="M117 866q0 88 22 168.5t64 144.5t110 102t152 38q23 0 38 -1t48 -7t57 -16.5t57.5 -34t58 -55t51 -82.5t43 -114.5t27.5 -153.5t11 -196q0 -116 -11.5 -214t-40.5 -188.5t-73.5 -153t-114.5 -99.5t-161 -37q-100 0 -175 50t-112 126t-41 166h170q3 -83 49.5 -136.5 t112.5 -53.5q203 0 225 391l4 12l-6 4q-29 -47 -92.5 -71.5t-130.5 -24.5q-70 0 -127.5 25.5t-96.5 68t-66.5 99t-39.5 118t-12 125.5zM281 862q0 -73 19.5 -134.5t64 -103.5t106.5 -42q23 0 46 5t54 23t54.5 48t40 85.5t16.5 128.5q0 49 -10 96.5t-32.5 94t-66 75.5 t-102.5 29q-17 0 -33 -2.5t-47 -19.5t-53 -46t-39.5 -91t-17.5 -146z" />
<glyph unicode=":" d="M313 0v242h185v-242h-185zM313 717v241h185v-241h-185z" />
<glyph unicode=";" d="M276 0v242h189v-267q0 -93 -51 -152.5t-138 -58.5v134q30 -1 47.5 16t21 32t3.5 31v23h-72zM276 717v241h189v-241h-189z" />
<glyph unicode="&#x3c;" d="M102 592v94l707 518l59 -129l-594 -436l594 -436l-59 -129z" />
<glyph unicode="=" d="M100 365v163h772v-163h-772zM100 729v164h772v-164h-772z" />
<glyph unicode="&#x3e;" d="M102 203l594 436l-594 436l60 129l706 -518v-94l-706 -518z" />
<glyph unicode="?" d="M96 877v81q0 26 3 54t13 65.5t25 71.5t41.5 67.5t61 58t85 39.5t111.5 15q82 0 146 -28.5t99.5 -69.5t58.5 -92.5t30.5 -91.5t7.5 -74q0 -86 -28 -148.5t-67.5 -101.5t-79 -77.5t-67.5 -98t-28 -139.5v-72h-164v70q0 59 9 105t30.5 83.5t39 60t50.5 58.5q82 89 103 122 q38 60 38 132q0 27 -4 53.5t-16 56t-31 51t-51 36t-74 14.5q-41 0 -74 -15.5t-52 -38.5t-31 -53.5t-16.5 -57t-4.5 -52.5v-84h-164zM344 0v238h164v-238h-164z" />
<glyph unicode="@" d="M23 561q0 107 29 214.5t83 201t145 152.5t203 59q90 0 164.5 -31.5t123.5 -85t85 -117.5t55 -137.5t28 -136.5t9 -121q0 -148 -66 -249t-169 -101q-38 0 -58 12t-43 43h-4q-30 -36 -62.5 -49.5t-84.5 -13.5t-93 21t-65 54.5t-40 79.5t-21.5 90t-5.5 93q0 65 12 123.5 t37 108t69.5 79t102.5 29.5q40 0 67.5 -8t50.5 -33l5 2v10h125v-426v-9q0 -20 0.5 -31.5t3 -27.5t9 -24t17.5 -8q9 0 18.5 4.5t23 19.5t23.5 39.5t17.5 69t7.5 102.5q0 55 -9 116t-33.5 132.5t-61 127t-98 93t-138.5 37.5q-70 0 -128.5 -33.5t-97 -86.5t-65 -121t-38 -135 t-11.5 -130q0 -119 24 -212t60.5 -146.5t84 -88.5t89 -47t82.5 -12q104 0 199 70l37 -105q-109 -88 -236 -88q-92 0 -169.5 36t-130.5 97t-90 142.5t-54.5 171t-17.5 184.5zM371 537q0 -117 29.5 -165t70.5 -48q39 0 68.5 52t29.5 159q0 221 -98 221q-41 0 -70.5 -54.5 t-29.5 -164.5z" />
<glyph unicode="A" d="M25 0l378 1290h160l383 -1290h-178l-106 367h-359l-102 -367h-176zM342 518h276l-131 453l-6 39h-6l-6 -39z" />
<glyph unicode="B" d="M152 0v1290h385q62 0 111.5 -20t81 -52.5t52.5 -77.5t30 -91.5t9 -96.5q0 -79 -27.5 -153t-76.5 -101q-5 -3 -19 -8v-4q81 -16 121.5 -100t40.5 -199q0 -30 -2 -58t-10.5 -68.5t-22 -74.5t-39 -69.5t-59.5 -60t-86 -40.5t-115 -16h-374zM315 152h246q58 0 96.5 59 t38.5 170q0 14 -1 28t-4.5 42.5t-13 52t-24 46.5t-40 36.5t-58.5 13.5h-240v-448zM315 752h203q77 0 108 48.5t31 137.5q0 30 -1.5 51t-8.5 52t-20 50t-39 33.5t-62 14.5h-211v-387z" />
<glyph unicode="C" d="M94 625q0 187 33.5 326.5t92 220t130.5 119t158 38.5q95 0 170 -41.5t119 -109.5t65 -152q18 -70 17 -145v-29h-160v19q-1 41 -7 83q-8 52 -29.5 104.5t-66.5 86t-108 33.5q-61 0 -107 -36.5t-72.5 -91.5t-43 -131.5t-22 -145.5t-5.5 -144q0 -70 7.5 -138t27 -138 t48.5 -122t75 -85t104 -33q41 0 74.5 16.5t54.5 41.5t37.5 60t24.5 67.5t13 69t6 58.5t1 43h164q-7 -105 -28.5 -188t-52.5 -137t-66 -91.5t-77.5 -56.5t-79 -27t-75.5 -8q-197 0 -309.5 174.5t-112.5 489.5z" />
<glyph unicode="D" d="M147 0v1290h316q29 0 53 -2t70 -15.5t82 -36.5t78 -71.5t70.5 -114t47.5 -169.5t19 -234q0 -133 -19.5 -239t-47.5 -172.5t-74 -114.5t-82.5 -70.5t-90.5 -35t-80.5 -14t-68.5 -1.5h-4h-269zM311 152h115q50 0 87 8t78 38t67 81.5t43.5 144.5t17.5 221q0 102 -12.5 184 t-30 132.5t-45 87t-49 53.5t-50.5 26t-41 10t-28 1h-152v-987z" />
<glyph unicode="E" d="M176 0v1290h725v-151h-561v-385h514v-152h-514v-450h578v-152h-742z" />
<glyph unicode="F" d="M188 0v1290h730v-151h-566v-394h502v-151h-502v-594h-164z" />
<glyph unicode="G" d="M88 662q0 119 14.5 216.5t38 165.5t58 120t71 82.5t79.5 50t80.5 26t78.5 6.5q148 0 252 -130q96 -122 96 -296v-24h-158q1 12 1 24q0 35 -7 73q-9 50 -30.5 96.5t-62.5 76t-95 29.5q-18 0 -33.5 -2t-42.5 -13.5t-49 -31t-46.5 -58.5t-41.5 -92.5t-28 -137.5t-11 -188 q0 -22 0.5 -46.5t5.5 -81.5t13.5 -106.5t27 -108.5t43 -100.5t64.5 -70t90 -28.5q58 0 101 45t64 114t30 138q7 56 7 108v23h-209v151h373v-692h-164v72q-74 -111 -213 -111q-54 0 -105.5 18t-105.5 67t-94.5 125t-66 202.5t-25.5 288.5z" />
<glyph unicode="H" d="M143 0v1290h164v-522h357v522h163v-1290h-163v616h-357v-616h-164z" />
<glyph unicode="I" d="M143 0v152h260v987h-260v151h684v-151h-260v-987h260v-152h-684z" />
<glyph unicode="J" d="M80 461h164q-1 -22 -1 -43q0 -68 10 -121q13 -69 32.5 -103.5t50 -54t51 -23t47.5 -3.5q36 0 61 5t52 24.5t43.5 53.5t27.5 96.5t11 149.5v848h164v-841q0 -90 -11.5 -163t-30.5 -123t-47 -87.5t-58 -59t-67.5 -34.5t-70 -17t-70.5 -4q-76 0 -136.5 21.5t-99 61 t-64.5 86.5t-38.5 106.5t-17.5 112.5q-3 37 -3 76q0 18 1 36z" />
<glyph unicode="K" d="M156 0v1290h163v-565l424 565h203l-399 -534l416 -756h-197l-330 608l-117 -157v-451h-163z" />
<glyph unicode="L" d="M207 0v1290h164v-1138h532v-152h-696z" />
<glyph unicode="M" d="M119 0v1290h162l194 -588l6 -30h8l7 30l194 588h162v-1290h-164v788l-160 -464h-86l-159 464v-788h-164z" />
<glyph unicode="N" d="M139 0v1290h158l373 -897v897h164v-1290h-162l-369 901v-901h-164z" />
<glyph unicode="O" d="M92 680q0 300 102.5 474.5t290.5 174.5q77 0 140 -31t103 -77.5t70 -112.5t45 -125t23.5 -126.5t10.5 -105t2 -71.5q0 -89 -8 -171t-25.5 -165t-48 -150.5t-72.5 -120.5t-103.5 -82.5t-136.5 -29.5q-86 0 -155 43t-112.5 113.5t-72.5 166t-41 193t-12 203.5zM256 680 q0 -112 9.5 -202t24 -148t36 -101t41 -64.5t44.5 -34t40.5 -15t33.5 -2.5t33.5 2.5t40.5 15t44.5 34t41.5 64.5t36.5 101t24 148t9.5 202q0 96 -10 174t-25.5 128.5t-38 88.5t-43 57.5t-44 31.5t-39 15t-30.5 3t-30.5 -3t-39 -15t-44 -31.5t-42.5 -57.5t-37.5 -88.5 t-25.5 -128.5t-10 -174z" />
<glyph unicode="P" d="M164 0v1290h387q26 0 44.5 -1t57 -8t66 -20t62 -40.5t56.5 -65.5t37 -98.5t15 -136.5q0 -97 -22.5 -171t-57 -118t-82.5 -71.5t-93.5 -37.5t-96.5 -10h-209v-512h-164zM328 664h204q105 0 149 64.5t44 193.5q0 110 -42.5 163.5t-150.5 53.5h-204v-475z" />
<glyph unicode="Q" d="M84 680q0 52 4 105.5t16 119t30 123.5t49.5 114.5t72 96.5t99.5 65t130 25t130 -25t99.5 -66t72 -97.5t50 -115t30.5 -124t16 -119t4 -104.5q0 -144 -25.5 -296.5t-89.5 -250.5l113 -139l-113 -101l-96 125q-81 -55 -191 -55q-77 0 -140 31.5t-103.5 79.5t-71.5 117 t-46.5 133.5t-25 139t-12 122.5t-2.5 96zM248 680q0 -67 4.5 -133t20 -147.5t40.5 -142.5t70 -102.5t104 -41.5q47 0 99 26l-99 125l111 98l68 -92q57 137 57 410q0 44 -2.5 85.5t-9.5 103.5t-23.5 112.5t-41.5 97t-66.5 73t-94.5 26.5q-29 0 -56.5 -9t-62 -40.5t-59.5 -83 t-42 -146t-17 -219.5z" />
<glyph unicode="R" d="M139 0v1290h391q17 0 32.5 -1t49 -8t61 -19.5t60 -38t55 -61t37.5 -92t15 -126.5q0 -33 -4 -67.5t-16.5 -84.5t-43 -90t-76.5 -57v-8q64 -13 89 -93t28 -233q-1 -15 -1 -57q0 -10 1 -20q1 -28 1 -44q2 -22 6 -57.5t15.5 -68t30.5 -64.5h-172q-10 17 -16.5 31.5t-11 34.5 t-7 32t-4 41.5t-2 44.5t-1 60t-1.5 69q0 12 -0.5 41t-1 40t-2.5 35t-4.5 33.5t-7 27.5t-11.5 25.5t-17 18.5t-23.5 15.5t-31 8t-38.5 3.5h-215v-561h-164zM303 713h219q25 0 40.5 2t39.5 13t38 32.5t25 63.5t11 102q0 58 -10 99t-24.5 63t-40 34t-46.5 14.5t-55 2.5h-197 v-426z" />
<glyph unicode="S" d="M104 438h168q-1 -13 -1 -26q0 -42 8 -84q10 -54 33.5 -104t69.5 -80.5t107 -30.5q216 0 216 249q0 78 -36 126.5t-139 80.5q-19 6 -56 17q-44 13 -65.5 19.5t-59 20t-56.5 24t-48 28t-43.5 35t-33 43t-27 54t-14.5 65.5t-6 81q0 97 33 171.5t88 117t118 63.5t132 21 q45 0 87.5 -9.5t90.5 -37.5t84 -72t62.5 -120.5t31.5 -176.5h-164q-14 265 -199 265q-85 0 -142.5 -57t-57.5 -181q0 -62 20.5 -95.5t81.5 -60.5q34 -15 94.5 -32.5t107.5 -30.5t102 -40.5t91.5 -64t61 -100.5t24.5 -149q0 -199 -105 -302.5t-278 -103.5q-95 0 -167 33.5 t-112 83t-64.5 117t-31.5 125.5q-6 51 -6 103v15z" />
<glyph unicode="T" d="M27 1139v151h917v-151h-377v-1139h-164v1139h-376z" />
<glyph unicode="U" d="M129 498v792h164v-880q0 -133 51 -215t139 -82q37 0 67 14t50 36.5t34.5 56.5t22.5 66.5t12.5 75t5.5 74t1 70.5v784h164v-792v-5q0 -33 -0.5 -54t-3.5 -66t-9 -77.5t-18.5 -78.5t-29.5 -78.5t-44.5 -68.5t-62 -58t-83 -36.5t-106.5 -14.5t-104 10.5t-95 44.5t-81 91 t-53 156.5t-21 234.5z" />
<glyph unicode="V" d="M27 1290h168l284 -995l4 -21h11l4 21l272 995h174l-364 -1290h-179z" />
<glyph unicode="W" d="M23 1290h155l90 -899l172 656h90l172 -656l91 899h155l-127 -1290h-176l-147 586l-9 45h-8l-8 -45l-147 -586h-176z" />
<glyph unicode="X" d="M12 0l394 659l-381 631h182l278 -473l281 473h180l-377 -631l389 -659h-188l-285 496l-282 -496h-191z" />
<glyph unicode="Y" d="M14 1290h181l292 -557l289 557h182l-389 -735v-555h-163v555z" />
<glyph unicode="Z" d="M78 0v162l608 977h-573v151h751v-147l-608 -991h637v-152h-815z" />
<glyph unicode="[" d="M213 -252v1610h504v-152h-340v-1306h340v-152h-504z" />
<glyph unicode="\" d="M47 1333l123 88l754 -1650l-125 -90z" />
<glyph unicode="]" d="M256 -100h340v1306h-340v152h504v-1610h-504v152z" />
<glyph unicode="^" d="M92 1006l215 280h357l215 -280h-179l-215 151l-215 -151h-178z" />
<glyph unicode="_" d="M53 -117h865v-153h-865v153z" />
<glyph unicode="`" d="M332 1370h254l55 -303h-106z" />
<glyph unicode="a" d="M98 262q0 72 25.5 126t53.5 83t88.5 51.5t88.5 28t95 16.5q7 1 10 2q21 3 46.5 6t38.5 5t29 4.5t23 5t15 6.5t11 9.5t5.5 13t3.5 18.5v45q-11 174 -154 174q-183 0 -183 -187q0 -14 1 -30h-152v14q-1 31 3 63q4 38 24.5 92t54 92.5t98.5 66.5t152 28q144 0 225.5 -85.5 t81.5 -225.5v-471q0 -55 4.5 -70.5t18.5 -17.5h10q21 0 57 8v-149q-50 -17 -96 -17q-60 0 -102.5 27.5t-42.5 64.5v9q-65 -101 -232 -101q-79 0 -139.5 27t-94.5 71.5t-50.5 94.5t-16.5 102zM262 266q0 -66 33.5 -113t112.5 -47q103 0 163 74t60 193v80q-25 -9 -49 -12.5 t-75 -9.5t-112 -17q-29 -5 -46.5 -10.5t-40.5 -20.5t-34.5 -44t-11.5 -73z" />
<glyph unicode="b" d="M158 0v1290h151v-383q79 88 209 88q23 0 46 -2.5t61 -14.5t70 -32.5t67.5 -60t60 -92t40.5 -134t16 -182.5q0 -102 -17 -184t-42.5 -134t-61.5 -90.5t-68 -57t-69.5 -29.5t-57 -13t-39.5 -2q-60 0 -121.5 20.5t-93.5 63.5v-51h-151zM309 473q0 -103 20.5 -178.5 t53.5 -114.5t67 -56.5t70 -17.5q90 0 142.5 94t52.5 277q0 179 -53.5 279t-149.5 100q-203 0 -203 -383z" />
<glyph unicode="c" d="M102 504q0 62 9 122.5t36 129t68.5 120t113 85.5t163.5 34q170 -1 266 -107q88 -97 88 -237v-26h-160v14q0 31 -7 61q-9 38 -29.5 74.5t-60.5 59t-95 22.5q-41 0 -78 -16.5t-72.5 -54t-56.5 -111t-21 -174.5q0 -198 69.5 -296t170.5 -98q57 0 98.5 28t61.5 74t28 90 q8 40 8 80v9h164q-1 -84 -24 -158.5t-66.5 -133.5t-113.5 -93.5t-158 -34.5q-94 0 -167 36t-116 91t-71 129t-38 142t-10 139z" />
<glyph unicode="d" d="M90 463q0 135 29 239t79.5 167t115 94.5t139.5 31.5q128 0 211 -80v375h151v-1290h-151v39q-62 -42 -103 -57t-108 -15q-74 0 -133.5 24.5t-97.5 66.5t-65.5 92t-41 108.5t-19.5 107.5t-6 97zM254 467q0 -166 55.5 -263.5t145.5 -97.5q41 0 76.5 19.5t66 60.5t48.5 116 t18 175q0 93 -15 164t-37.5 110.5t-53 64.5t-56 32.5t-51.5 7.5q-197 0 -197 -389z" />
<glyph unicode="e" d="M92 477q0 109 23 201.5t69 164t121.5 112t173.5 40.5q93 0 164.5 -33t111.5 -81t65.5 -113.5t33.5 -119t10 -109.5l2 -101h-610q1 -40 8 -80.5t24 -87.5t43 -82t70.5 -58.5t100.5 -23.5q42 0 75.5 15t53.5 37.5t34 54.5t20 60t9 59h164q-5 -72 -29 -136t-67.5 -116 t-113 -82.5t-156.5 -30.5q-86 0 -155.5 31t-114 81.5t-75 118t-43 137t-12.5 142.5zM256 578h446q-1 32 -5.5 64t-18.5 72.5t-36 70t-61.5 50.5t-91.5 21q-30 0 -55 -5t-55.5 -22t-53 -46t-41.5 -81.5t-28 -123.5z" />
<glyph unicode="f" d="M137 819v139h205v93q0 18 1.5 34t9 42t20 47.5t38 45t59 39.5t86.5 26.5t118 10.5q100 0 192 -10v-137q-81 8 -147 8h-7h-4q-214 0 -214 -113v-86h372v-139h-372v-819h-152v819h-205z" />
<glyph unicode="g" d="M94 489q0 237 92.5 371.5t257.5 134.5q135 0 218 -80v43h151v-841q0 -86 -14.5 -155.5t-36.5 -115.5t-54.5 -80t-63 -52.5t-66.5 -29t-60.5 -13.5t-50.5 -3q-136 0 -228 79.5t-96 211.5h164q0 -15 2.5 -31t12 -39t25 -40t45.5 -29.5t69 -12.5q47 0 84 18t58.5 45t35.5 62 t19 67t4 62l-3 2q-41 -39 -87 -52t-113 -13q-26 0 -52.5 3.5t-64 16.5t-70.5 34t-66.5 58.5t-57.5 87.5t-39 125t-15 166zM258 492q0 -104 19 -178t52 -110.5t67.5 -51.5t74.5 -15q38 0 69 16t50.5 39.5t33.5 58.5t21.5 65t11.5 68t4.5 58.5t0.5 44.5q0 27 -1 51.5t-5.5 64 t-12.5 71.5t-23.5 67t-36.5 59t-53.5 40t-72.5 16q-11 0 -21.5 -1t-32 -8.5t-39 -20.5t-38 -40.5t-35 -64.5t-24 -96.5t-9.5 -132.5z" />
<glyph unicode="h" d="M156 0v1290h151v-397q63 92 228 92q42 0 78.5 -8.5t74.5 -32t65 -61t44.5 -100.5t17.5 -146v-637h-151v590q0 64 -5 105.5t-19.5 78.5t-44 54.5t-75.5 17.5q-29 0 -55.5 -7t-56 -27.5t-51.5 -52.5t-36 -87t-14 -127v-545h-151z" />
<glyph unicode="i" d="M143 0v139h267v680h-267v139h418v-819h266v-139h-684zM410 1063v227h151v-227h-151z" />
<glyph unicode="j" d="M84 -168q81 -18 145 -18q109 0 168.5 17t78 44.5t18.5 75.5v868h-306v139h457v-1015q0 -46 -6 -79.5t-29.5 -72t-65 -62t-116.5 -39.5t-180 -16q-87 0 -164 11v147zM494 1063v227h151v-227h-151z" />
<glyph unicode="k" d="M172 0v1290h152v-774l424 442h200l-364 -378l372 -580h-182l-297 473l-153 -164v-309h-152z" />
<glyph unicode="l" d="M141 0v139h269v1012h-269v139h420v-1151h266v-139h-686z" />
<glyph unicode="m" d="M90 0v983h152v-49q27 30 52 39.5t58 9.5q56 0 90.5 -19.5t61.5 -78.5q32 54 72 76t102 22q203 0 203 -356v-627h-152v621v17v46.5t-1.5 45t-6 45t-11 34.5t-18 26.5t-26.5 8.5q-11 0 -23 -6t-27 -24.5t-27 -46t-20 -76t-8 -109.5v-582h-151v618v14v41.5t-1.5 45t-6 48 t-11.5 38t-19 29.5t-28 10t-32 -12.5t-32.5 -40t-27 -82t-10.5 -127.5v-582h-152z" />
<glyph unicode="n" d="M156 0v958h151v-61q77 86 225 86q42 0 79 -8t76 -31.5t66 -60.5t44.5 -100t17.5 -146v-637h-151v590q0 47 -2 79t-10.5 68t-23.5 57.5t-42 35.5t-66 14q-19 0 -40 -4t-54 -21.5t-57.5 -47t-43 -88.5t-18.5 -138v-545h-151z" />
<glyph unicode="o" d="M96 489q0 122 27 215.5t67 147t93.5 87.5t100 45t93.5 11q58 0 112 -16t105.5 -54.5t89.5 -95t61 -144t23 -196.5q0 -50 -6.5 -101.5t-21.5 -113t-44.5 -114.5t-70 -97.5t-103.5 -70t-141 -25.5q-77 0 -140 26t-103.5 70.5t-69.5 97.5t-44 114.5t-21.5 113t-6.5 100.5z M260 483q0 -72 12.5 -137t37.5 -120t69 -87.5t102 -32.5q48 0 87 22.5t64 59t42 86t24 101.5t7 108q0 101 -21 181.5t-74 136t-133 55.5q-59 0 -102.5 -30t-68 -84t-35.5 -118t-11 -141z" />
<glyph unicode="p" d="M158 -319v1277h151v-51q79 88 205 88q72 0 135.5 -29.5t116 -89.5t83 -162.5t30.5 -236.5q0 -105 -21 -195t-63.5 -161.5t-113.5 -112.5t-165 -41q-153 0 -207 90v-376h-151zM309 473q0 -104 19.5 -180t52.5 -114.5t66.5 -55.5t70.5 -17q31 0 58 10t53.5 35.5t44.5 66 t29.5 107t11.5 152.5q0 78 -12 144.5t-36 120t-64 84t-93 30.5q-36 0 -69.5 -19t-64 -61t-49 -120t-18.5 -183z" />
<glyph unicode="q" d="M90 467q0 135 29 238.5t80 165.5t115 93t139 31q51 0 115.5 -21.5t95.5 -58.5v43h151v-1277h-151v358q-38 -38 -97.5 -55t-113.5 -17q-73 0 -137 29.5t-115.5 88.5t-81 157t-29.5 225zM254 467q0 -87 14.5 -154t35.5 -105t49.5 -62t52.5 -32t49 -8q28 0 54 7.5t55.5 32 t50.5 63.5t35 108t14 160q0 185 -56.5 282t-154.5 97q-199 0 -199 -389z" />
<glyph unicode="r" d="M283 0v958h151v-104q38 41 92 68.5t110 38t87.5 13.5t58.5 3h107v-139h-92q-72 0 -129.5 -13.5t-95 -34.5t-64.5 -53t-41 -60.5t-22 -66t-9.5 -62t-1.5 -54.5v-494h-151z" />
<glyph unicode="s" d="M113 324h163q-1 -27 2 -52.5t16 -57t36 -54.5t66 -38.5t100 -15.5q200 0 200 175q0 58 -35 81t-123 47l-12 3q-18 5 -51.5 13t-54.5 13.5t-52.5 15t-51.5 18t-46.5 22t-43.5 28t-35 35.5t-28.5 44.5t-17 54t-6.5 65.5q0 115 93 194.5t253 79.5q90 0 159 -28t108.5 -76 t59.5 -105t22 -122h-164q2 14 2 29q0 18 -4 36q-6 32 -25 61.5t-60.5 47.5t-101.5 18q-78 0 -128 -36.5t-50 -108.5q0 -29 9.5 -50.5t27 -34t33 -18.5t37.5 -12q32 -9 81 -20.5t81.5 -18.5t74.5 -20.5t70 -26.5t57.5 -34.5t46.5 -47.5t28 -63t11 -82q0 -36 -6 -71t-29 -81.5 t-60.5 -81t-107 -58.5t-161.5 -24q-90 0 -159.5 24t-110.5 61t-67.5 86.5t-36 94.5t-9.5 91z" />
<glyph unicode="t" d="M78 819v139h246v261h151v-261h352v-139h-352v-616q0 -18 0.5 -25.5t4.5 -20.5t12.5 -18.5t25 -10.5t41.5 -5q145 0 268 20v-139q-126 -20 -237 -20q-152 0 -209 57t-57 170v608h-246z" />
<glyph unicode="u" d="M156 322v636h151v-589q0 -83 10 -137t30.5 -80.5t44.5 -36t61 -9.5q24 0 47 5t54 24t54 50t39.5 90t16.5 137v546h151v-958h-151v55q-61 -53 -105 -70.5t-121 -17.5q-144 0 -213 93t-69 262z" />
<glyph unicode="v" d="M29 958h176l272 -694l8 -24h7l8 26l264 692h176l-383 -958h-139z" />
<glyph unicode="w" d="M25 958h155l119 -620l139 500h94l140 -500l119 620h155l-180 -958h-145l-121 414l-8 63h-13l-8 -63l-121 -414h-145z" />
<glyph unicode="x" d="M29 0l360 498l-332 460h193l237 -344l236 344h192l-331 -460l360 -498h-199l-258 383l-262 -383h-196z" />
<glyph unicode="y" d="M55 958h166l299 -731h4l267 731h151l-395 -1110q-17 -47 -42 -82t-48 -52t-50 -27.5t-42 -12.5t-29 -2q-79 0 -143 15v176q59 -33 104 -33q35 0 51.5 6t34.5 34.5t39 92.5l18 55z" />
<glyph unicode="z" d="M100 0v100l549 719h-510v139h711v-114l-531 -705h553v-139h-772z" />
<glyph unicode="{" d="M248 487v144q60 10 98.5 32.5t55 56.5t21.5 63t5 73v191q0 78 22 137t53.5 90.5t75 51.5t76.5 25.5t68 6.5v-127q-53 -7 -91 -42.5t-38 -109.5q0 -14 1 -28.5t2.5 -32.5t2.5 -29q4 -70 4 -104q0 -17 -1.5 -39t-13.5 -69.5t-32 -85.5t-63 -74.5t-101 -49.5v-16 q58 -13 101 -49.5t63 -74.5t32 -85.5t13.5 -69.5t1.5 -39q0 -34 -4 -104q0 -3 -3 -37.5t-3 -52.5q0 -74 38 -109.5t91 -42.5v-127q-35 1 -68 6.5t-76.5 25.5t-75 52t-53.5 91t-22 137v190q0 44 -5 73t-21.5 63t-55 56.5t-98.5 32.5z" />
<glyph unicode="|" d="M403 -319v1609h164v-1609h-164z" />
<glyph unicode="}" d="M248 -113q53 7 91 42.5t38 109.5q0 14 -1 28.5t-2.5 32.5t-2.5 29q-4 70 -4 104q0 17 1.5 39t13.5 69.5t32 85.5t63 74.5t101 49.5v16q-58 13 -101 49.5t-63 74.5t-32 85.5t-13.5 69.5t-1.5 39q0 34 4 104q0 3 3 37.5t3 52.5q0 74 -38 109.5t-91 42.5v127q35 -1 68 -6.5 t76.5 -25.5t75 -51.5t53.5 -90.5t22 -137v-191q0 -44 5 -73t21.5 -63t55 -56.5t98.5 -32.5v-144q-60 -10 -98.5 -32.5t-55 -56.5t-21.5 -63t-5 -73v-190q0 -78 -22 -137t-53.5 -91t-75 -52t-76.5 -25.5t-68 -6.5v127z" />
<glyph unicode="~" d="M133 1069q16 94 73.5 157.5t143.5 63.5q55 0 111 -20q117 -43 147 -43q26 0 42 18t22 41h166q-8 -37 -23.5 -73.5t-41 -73.5t-66.5 -59.5t-91 -22.5q-35 0 -51 4q-17 4 -99 31.5t-106 27.5q-46 0 -65 -51h-162z" />
<glyph unicode="&#xa0;" />
<glyph unicode="&#xa4;" d="M111 176l102 197q-47 115 -47 272q0 158 47 273l-102 196l141 150l88 -168q42 53 145 53q98 0 150 -49l88 164l139 -150l-102 -196q47 -115 47 -273q0 -157 -47 -272l102 -197l-141 -149l-86 168q-70 -54 -150 -54q-74 0 -145 56l-88 -170zM330 645q0 -135 49 -233.5 t108 -98.5q58 0 107 98t49 234q0 140 -48 236t-108 96q-53 0 -105 -90.5t-52 -241.5z" />
<glyph unicode="&#xa6;" d="M403 -4v477h164v-477h-164zM403 813v477h164v-477h-164z" />
<glyph unicode="&#xa7;" d="M104 594q0 105 48.5 178.5t123.5 97.5l3 7q-39 19 -59.5 75t-20.5 113q0 117 75 192.5t209 75.5q62 0 113 -15.5t83.5 -42.5t56.5 -62t33.5 -73.5t14.5 -78.5t-2 -76h-155q1 22 -0.5 44.5t-9.5 51t-23 50t-44 36.5t-69 15q-119 0 -119 -135q0 -26 7.5 -45t18.5 -31.5 t35 -26t44.5 -22.5t60.5 -25.5t70 -30.5q97 -46 153.5 -92.5t86.5 -112.5t30 -159q0 -92 -46.5 -167.5t-121.5 -103.5v-8q43 -28 60.5 -83t17.5 -101q0 -34 -7.5 -69.5t-28 -76t-52 -71.5t-84 -51.5t-119.5 -20.5q-74 0 -130.5 24t-89 65t-50 87t-24.5 99q-6 49 0 98h163 q-3 -38 0 -76q18 -145 131 -145q65 0 96 41t31 100q0 31 -10 54t-34 40t-43.5 26.5t-61 25.5t-64.5 26q-90 40 -150.5 85t-91.5 93.5t-43 95.5t-12 105zM268 592q0 -94 58 -145t233 -119q72 23 109 77t37 113q0 39 -15.5 71.5t-37 54.5t-65.5 45.5t-77.5 37t-97.5 37.5 q-59 -14 -101.5 -57t-42.5 -115z" />
<glyph unicode="&#xa9;" d="M25 561q0 143 40 265t105 201.5t146.5 124t166.5 44.5q86 0 168.5 -45t148 -124.5t106 -201.5t40.5 -264q0 -144 -40.5 -266.5t-106 -201.5t-148 -123t-168.5 -44q-85 0 -166 43.5t-146.5 122t-105.5 201t-40 268.5zM147 561q0 -122 32 -222.5t82 -162t108 -94.5t114 -33 q59 0 117.5 33.5t109 95t82 162t31.5 221.5q0 120 -32 220t-82 162t-109 96t-117 34q-55 0 -113 -33.5t-108.5 -95.5t-82.5 -162.5t-32 -220.5zM258 561q0 81 15.5 142.5t38.5 97t54.5 57.5t60 29.5t58.5 7.5q52 0 92.5 -23t64 -61.5t35 -82.5t11.5 -91h-125q1 59 -23 91 t-55 32q-94 0 -94 -199q0 -62 10 -108t26 -69t32.5 -33.5t32.5 -10.5q68 0 79 143h127q-22 -143 -68.5 -209.5t-150.5 -66.5q-73 0 -124.5 52t-74 130t-22.5 172z" />
<glyph unicode="&#xab;" d="M172 440v148l293 270v-192l-164 -152l164 -152v-192zM506 440v148l293 270v-192l-164 -152l164 -152v-192z" />
<glyph unicode="&#xac;" d="M100 647v164h772v-338h-163v174h-609z" />
<glyph unicode="&#xad;" d="M121 561v162h731v-162h-731z" />
<glyph unicode="&#xae;" d="M25 561q0 143 40 265t105 201.5t146.5 124t166.5 44.5q86 0 168.5 -45t148 -124.5t106 -201.5t40.5 -264q0 -144 -40.5 -266.5t-106 -201.5t-148 -123t-168.5 -44q-85 0 -166 43.5t-146.5 122t-105.5 201t-40 268.5zM147 561q0 -122 32 -222.5t82 -162t108 -94.5t114 -33 q59 0 117.5 33.5t109 95t82 162t31.5 221.5q0 120 -32 220t-82 162t-109 96t-117 34q-55 0 -113 -33.5t-108.5 -95.5t-82.5 -162.5t-32 -220.5zM305 223v660h227q58 0 99 -51.5t41 -135.5q0 -51 -19 -97t-59 -50v-10q22 -1 35.5 -13t18.5 -40.5t6 -46t1 -58.5v-45 q3 -75 39 -113h-125q-22 47 -22 101v59q0 64 -11 86.5t-49 22.5h-67v-269h-115zM420 594h84q53 0 53 98q0 88 -49 88h-88v-186z" />
<glyph unicode="&#xb0;" d="M176 1024q0 130 90 220.5t221 90.5t221.5 -90.5t90.5 -220.5t-90.5 -220.5t-221.5 -90.5t-221 90.5t-90 220.5zM340 1024q0 -60 43.5 -103.5t103.5 -43.5t104 43.5t44 103.5t-44 103.5t-104 43.5t-103.5 -43.5t-43.5 -103.5z" />
<glyph unicode="&#xb1;" d="M100 0v164h772v-164h-772zM100 731v164h303v371h162v-371h307v-164h-307v-371h-162v371h-303z" />
<glyph unicode="&#xb6;" d="M113 971q0 133 92.5 224t226.5 93l129 2v-1609h-164v970q-124 15 -204 105t-80 215zM657 -319v1609h164v-1609h-164z" />
<glyph unicode="&#xb7;" d="M391 369v239h189v-239h-189z" />
<glyph unicode="&#xbb;" d="M172 170v192l164 152l-164 152v192l293 -270v-148zM506 170v192l164 152l-164 152v192l293 -270v-148z" />
<glyph unicode="&#x401;" d="M176 0v1290h727v-151h-563v-385h516v-152h-516v-450h580v-152h-744zM336 1327v211h164v-211h-164zM602 1327v211h164v-211h-164z" />
<glyph unicode="&#x402;" d="M-14 1139v151h768v-151h-394v-363h119q38 0 70 -2.5t74.5 -12t76.5 -25t68.5 -45t58 -69.5t38 -100t14.5 -135q0 -97 -24.5 -171t-59 -114.5t-79.5 -66.5t-79.5 -33.5t-65.5 -7.5q-55 0 -92 12v154q34 -15 78 -15q59 0 96 39t49.5 92.5t12.5 122.5q0 61 -15.5 105.5 t-36.5 67t-53.5 35.5t-55.5 15.5t-54 2.5h-140v-625h-163v1139h-211z" />
<glyph unicode="&#x403;" d="M236 0v1290h696v-151h-533v-1139h-163zM406 1348l141 266h203l-195 -266h-149z" />
<glyph unicode="&#x404;" d="M96 657q0 132 17.5 238.5t44 175t66 119.5t74.5 76.5t78.5 41t70 18.5t55.5 3q69 0 126.5 -21.5t96 -59t67 -82.5t44 -97.5t22.5 -99t8 -90.5h-155q-1 29 -5.5 58t-13 64.5t-25 65.5t-38 56t-55 40.5t-74.5 14.5q-56 0 -100.5 -32.5t-69.5 -80t-42 -106t-22.5 -104.5 t-5.5 -83v-10h363v-152h-363v-39q0 -32 3 -69.5t11 -93.5t25 -105t42 -94t66 -71.5t93 -26.5q11 0 21 1t32.5 8.5t41 21t41.5 42.5t39 68t29 102t17 142h158q1 -65 -9 -133.5t-38 -142t-69.5 -130.5t-109.5 -94t-153 -37q-74 0 -135.5 27.5t-102.5 71t-72 105.5t-48.5 123.5 t-28 133.5t-14 126.5t-3.5 110.5z" />
<glyph unicode="&#x405;" d="M104 438h168q-3 -56 7 -110.5t33.5 -104t69.5 -80t107 -30.5q216 0 216 249q0 78 -36 126.5t-139 80.5q-19 6 -56 17q-44 13 -65.5 19.5t-59 20t-56.5 24t-48 28t-43.5 35t-33 43t-27 54t-14.5 65.5t-6 81q0 97 33 171.5t88 117t118 63.5t132 21q45 0 87.5 -9.5 t90.5 -37.5t84 -72t62.5 -120.5t31.5 -176.5h-164q-14 265 -199 265q-85 0 -142.5 -57t-57.5 -181q0 -62 20.5 -95.5t81.5 -60.5q34 -15 94.5 -32.5t107.5 -30.5t102 -40.5t91.5 -64t61 -100.5t24.5 -149q0 -199 -105 -302.5t-278 -103.5q-95 0 -167 33.5t-112 83t-64.5 117 t-31.5 125.5t-6 118z" />
<glyph unicode="&#x406;" d="M143 0v152h260v987h-260v151h684v-151h-260v-987h260v-152h-684z" />
<glyph unicode="&#x407;" d="M143 0v152h260v987h-260v151h684v-151h-260v-987h260v-152h-684zM270 1327v211h164v-211h-164zM537 1327v211h163v-211h-163z" />
<glyph unicode="&#x408;" d="M80 461h164q-4 -95 9 -164t32.5 -103.5t50 -54t51 -23t47.5 -3.5q36 0 61 5t52 24.5t43.5 53.5t27.5 96.5t11 149.5v848h164v-841q0 -90 -11.5 -163t-30.5 -123t-47 -87.5t-58 -59t-67.5 -34.5t-70 -17t-70.5 -4q-76 0 -136.5 21.5t-99 61t-64.5 86.5t-38.5 106.5 t-17 112.5t-2.5 112z" />
<glyph unicode="&#x409;" d="M43 8v148q12 -9 25 -9q16 0 29 14.5t21.5 44.5t15 61.5t10.5 80.5t6 85t3 91.5t1 83.5v77v30v575h452v-514h101q221 0 221 -389q0 -79 -12 -146.5t-37.5 -122.5t-69 -86.5t-102.5 -31.5h-265v1139h-125v-545q0 -83 -1 -139.5t-5.5 -125t-13 -113t-23 -90t-35.5 -71.5 t-51.5 -42.5t-70.5 -16.5q-37 0 -74 12zM606 152h66q32 0 52.5 23t28 66.5t9.5 72.5t2 75q0 35 -1 62.5t-5.5 62t-12.5 57t-23 38.5t-36 16h-80v-473z" />
<glyph unicode="&#x40a;" d="M70 0v1290h163v-522h181v522h164v-512h100q16 0 31 -2t38.5 -10.5t43 -23.5t41 -44.5t36 -69.5t24 -102t9.5 -139q0 -81 -10.5 -145t-24.5 -104t-38 -68.5t-41.5 -41.5t-43.5 -20t-36.5 -7.5t-28.5 -0.5h-264v616h-181v-616h-163zM578 152h96q4 0 10.5 5.5t16 22 t17.5 41.5t13.5 69t5.5 99q0 51 -4.5 93t-11 68t-15 44t-15.5 25.5t-13 7.5h-100v-475z" />
<glyph unicode="&#x40b;" d="M-14 1139v151h768v-151h-373v-406l49 4q39 4 117 4q95 0 161 -15.5t104 -40t58.5 -68t26.5 -86.5t6 -109v-422h-164v416v3q0 29 -0.5 42t-3 34t-7.5 30t-15 23t-25 19.5t-36.5 12t-51 8.5t-68.5 2q-32 0 -102 -4l-49 -4v-582h-164v1139h-231z" />
<glyph unicode="&#x40c;" d="M162 0v1290h164v-520h71l367 520h190l-417 -592l438 -698h-195l-383 625h-71v-625h-164zM315 1327l142 266h202l-194 -266h-150z" />
<glyph unicode="&#x40e;" d="M45 1290h176l295 -747l4 -29h8l7 29l247 747h168l-356 -1063q-47 -139 -109 -191t-159 -52q-77 0 -140 16v139q50 -4 76 -4q80 0 110 23.5t70 124.5l9 20zM307 1546h139q2 -57 20 -98t58 -41q33 0 54.5 28t21.5 111h139q-1 -38 -8 -75.5t-23 -77.5t-39.5 -69.5t-61 -49 t-83.5 -19.5t-83.5 19t-60.5 48.5t-39 70t-23.5 77t-10.5 76.5z" />
<glyph unicode="&#x40f;" d="M135 0v1290h164v-1138h373v1138h164v-1290h-271v-279h-159v279h-271z" />
<glyph unicode="&#x410;" d="M25 0l378 1290h160l383 -1290h-178l-106 367h-359l-102 -367h-176zM342 518h276l-131 453l-6 39h-6l-6 -39z" />
<glyph unicode="&#x411;" d="M160 0v1290h671v-151h-507v-365h235q65 0 117.5 -17.5t86 -43.5t58.5 -64.5t37 -72t19 -75.5t8.5 -65.5t1.5 -50.5q0 -76 -14 -137t-35.5 -100t-53 -68t-59.5 -44t-63 -23.5t-56.5 -10.5t-44.5 -2h-401zM324 152h213q59 0 97 15.5t57 48.5t25.5 70.5t6.5 94.5 q0 77 -15 128t-42.5 74.5t-54 31.5t-62.5 8h-225v-471z" />
<glyph unicode="&#x412;" d="M152 0v1290h385q62 0 111.5 -20t81 -52.5t52.5 -77.5t30 -91.5t9 -96.5q0 -79 -27.5 -153t-76.5 -101q-5 -3 -19 -8v-4q81 -16 121.5 -100t40.5 -199q0 -30 -2 -58t-10.5 -68.5t-22 -74.5t-39 -69.5t-59.5 -60t-86 -40.5t-115 -16h-374zM315 152h246q58 0 96.5 59 t38.5 170q0 14 -1 28t-4.5 42.5t-13 52t-24 46.5t-40 36.5t-58.5 13.5h-240v-448zM315 752h203q77 0 108 48.5t31 137.5q0 30 -1.5 51t-8.5 52t-20 50t-39 33.5t-62 14.5h-211v-387z" />
<glyph unicode="&#x413;" d="M236 0v1290h696v-151h-533v-1139h-163z" />
<glyph unicode="&#x414;" d="M33 150h69q81 158 116.5 357t35.5 478v305h561v-1140h103l-9 -433h-153v281h-561v-281h-152zM285 150h366v989h-237l-2 -142q-2 -146 -5.5 -229t-15.5 -197t-38 -214.5t-68 -206.5z" />
<glyph unicode="&#x415;" d="M176 0v1290h725v-151h-561v-385h514v-152h-514v-450h578v-152h-742z" />
<glyph unicode="&#x416;" d="M-18 0l254 684l-250 606h166l215 -542h45v542h151v-542h43l215 542h166l-248 -606l252 -684h-168l-213 608h-47v-608h-151v608h-47l-213 -608h-170z" />
<glyph unicode="&#x417;" d="M98 434h158q3 -66 13.5 -118t24 -85t35 -57t38.5 -35.5t43 -17.5t40.5 -7t38.5 -1q45 0 78.5 11t62 38.5t43.5 80.5t15 132v5q0 21 -0.5 34t-4 40.5t-9.5 46.5t-19.5 43t-32.5 38.5t-48.5 25t-67.5 10.5h-107v152h99q21 0 39.5 3.5t40.5 15t37 30.5t25.5 52.5t10.5 78.5 q0 106 -45.5 167t-130.5 61q-52 0 -90.5 -23.5t-57.5 -54.5t-30.5 -73.5t-13.5 -69t-2 -52.5h-156q-2 87 13.5 157t44.5 114.5t64 76t77.5 47.5t78.5 22.5t74 6.5q42 0 83.5 -8.5t89 -33t83 -63t59 -105t23.5 -152.5q0 -61 -14 -114.5t-48 -95t-83 -50.5v-5 q182 -35 182 -325q0 -98 -22.5 -174t-58 -120.5t-84.5 -73t-95.5 -38.5t-97.5 -10q-61 0 -114 12t-106.5 44t-90.5 83.5t-60.5 137t-24.5 196.5z" />
<glyph unicode="&#x418;" d="M137 0v1290h164v-893l379 893h151v-1290h-163v899l-379 -899h-152z" />
<glyph unicode="&#x419;" d="M139 0v1290h164v-889l369 889h162v-1290h-164v895l-371 -895h-160zM266 1546h144q-1 -29 5.5 -59.5t24.5 -55t45 -24.5q34 0 52 29t24 110h144q-1 -28 -5 -58.5t-18 -74.5t-36.5 -77t-64 -57t-96.5 -24q-47 0 -84.5 19.5t-60.5 48.5t-39.5 69.5t-24 77t-10.5 76.5z" />
<glyph unicode="&#x41a;" d="M162 0v1290h164v-520h71l367 520h190l-417 -592l438 -698h-195l-383 625h-71v-625h-164z" />
<glyph unicode="&#x41b;" d="M25 0v160q27 -13 71 -13q17 0 32 10t34 45.5t33 94t25 166.5t13 252l11 575h567v-1290h-164v1139h-250l-6 -408q-1 -85 -4.5 -153t-12 -148t-21 -140.5t-34.5 -119.5t-51 -97t-70.5 -61.5t-93.5 -23.5q-38 0 -79 12z" />
<glyph unicode="&#x41c;" d="M119 0v1290h162l194 -588l6 -30h8l7 30l194 588h162v-1290h-164v788l-160 -464h-86l-159 464v-788h-164z" />
<glyph unicode="&#x41d;" d="M143 0v1290h164v-522h357v522h163v-1290h-163v616h-357v-616h-164z" />
<glyph unicode="&#x41e;" d="M92 680q0 300 102.5 474.5t290.5 174.5q77 0 140 -31t103 -77.5t70 -112.5t45 -125t23.5 -126.5t10.5 -105t2 -71.5q0 -89 -8 -171t-25.5 -165t-48 -150.5t-72.5 -120.5t-103.5 -82.5t-136.5 -29.5q-86 0 -155 43t-112.5 113.5t-72.5 166t-41 193t-12 203.5zM256 680 q0 -112 9.5 -202t24 -148t36 -101t41 -64.5t44.5 -34t40.5 -15t33.5 -2.5t33.5 2.5t40.5 15t44.5 34t41.5 64.5t36.5 101t24 148t9.5 202q0 96 -10 174t-25.5 128.5t-38 88.5t-43 57.5t-44 31.5t-39 15t-30.5 3t-30.5 -3t-39 -15t-44 -31.5t-42.5 -57.5t-37.5 -88.5 t-25.5 -128.5t-10 -174z" />
<glyph unicode="&#x41f;" d="M143 0v1290h684v-1290h-163v1139h-357v-1139h-164z" />
<glyph unicode="&#x420;" d="M164 0v1290h387q26 0 44.5 -1t57 -8t66 -20t62 -40.5t56.5 -65.5t37 -98.5t15 -136.5q0 -97 -22.5 -171t-57 -118t-82.5 -71.5t-93.5 -37.5t-96.5 -10h-209v-512h-164zM328 664h204q105 0 149 64.5t44 193.5q0 110 -42.5 163.5t-150.5 53.5h-204v-475z" />
<glyph unicode="&#x421;" d="M94 625q0 187 33.5 326.5t92 220t130.5 119t158 38.5q95 0 170 -41.5t119 -110t65 -152t17 -173.5h-160q2 50 -6.5 101.5t-30 104.5t-66.5 86.5t-108 33.5q-61 0 -107 -36.5t-72.5 -91.5t-43 -131.5t-22 -145.5t-5.5 -144q0 -70 7.5 -138t27 -138t48.5 -122t75 -85 t104 -33q41 0 74.5 16.5t54.5 41.5t37.5 60t24.5 67.5t13 69t6 58.5t1 43h164q-7 -105 -28.5 -188t-52.5 -137t-66 -91.5t-77.5 -56.5t-79 -27t-75.5 -8q-197 0 -309.5 174.5t-112.5 489.5z" />
<glyph unicode="&#x422;" d="M27 1139v151h917v-151h-377v-1139h-164v1139h-376z" />
<glyph unicode="&#x423;" d="M45 1290h176l291 -739l8 -27h12l7 29l243 737h168l-356 -1063q-42 -129 -103 -186t-165 -57q-68 0 -140 16v141q37 -6 76 -6q42 0 64 3.5t43.5 19.5t36 43.5t36.5 81.5l9 20z" />
<glyph unicode="&#x424;" d="M70 655q0 35 1.5 66t9 82t20 93t38 89.5t60 81t88 59t119.5 31.5v133h163v-133q29 -3 57 -9.5t62.5 -23t64 -39.5t58.5 -62.5t49 -89t32.5 -121t12.5 -157.5q0 -135 -27.5 -236t-74.5 -157t-101.5 -83t-115.5 -27h-17v-152h-163v152h-17q-39 0 -77.5 10.5t-84 44t-79 86 t-56 146.5t-22.5 216zM233 657q0 -176 49 -267.5t124 -86.5v703q-50 -13 -85 -45.5t-53.5 -81t-26.5 -102t-8 -120.5zM569 303q78 -5 125 91.5t47 262.5q0 79 -11.5 140.5t-29 97.5t-42 60.5t-45.5 34.5t-44 14v-701z" />
<glyph unicode="&#x425;" d="M12 0l394 659l-381 631h182l278 -473l281 473h180l-377 -631l389 -659h-188l-285 496l-282 -496h-191z" />
<glyph unicode="&#x426;" d="M121 0v1290h164v-1138h372v1138h164v-1138h107l-8 -431h-154v279h-645z" />
<glyph unicode="&#x427;" d="M123 868v422h164v-416q0 -42 3 -70t14 -48t23.5 -30.5t39 -16.5t52.5 -7.5t73 -1.5q16 0 104 5l49 4v581h164v-1290h-164v557l-51 -4q-74 -4 -113 -4q-69 0 -122.5 8t-91 21t-64 36t-42 47t-24.5 59.5t-11.5 68.5t-2.5 79z" />
<glyph unicode="&#x428;" d="M76 0v1290h164v-1138h163v1138h164v-1138h164v1138h164v-1290h-819z" />
<glyph unicode="&#x429;" d="M80 0v1290h164v-1138h157v1138h164v-1138h158v1138h164v-1138h84l-8 -433h-154v281h-729z" />
<glyph unicode="&#x42a;" d="M12 1139v151h350v-514h213q27 0 58 -6t77.5 -29.5t82.5 -63t62 -115t26 -175.5q0 -22 -1 -44t-7.5 -63t-18 -75.5t-34.5 -74t-54 -66.5t-80.5 -45.5t-110.5 -18.5h-376v1139h-187zM362 152h209q14 0 30 4.5t37.5 20.5t38 41.5t28.5 72.5t12 108q0 105 -38 165.5 t-101 60.5h-216v-473z" />
<glyph unicode="&#x42b;" d="M78 0v1290h164v-514h151q29 0 57.5 -6.5t66.5 -30.5t65.5 -64t47 -114.5t19.5 -173.5q0 -20 -0.5 -39t-6 -60.5t-14.5 -75.5t-28 -75.5t-45 -69.5t-68 -47.5t-94 -19.5h-315zM242 152h145q29 0 50 26.5t30.5 68.5t13.5 78t4 70q0 60 -7.5 105t-17.5 68t-24 37t-23.5 17 t-19.5 3h-151v-473zM729 0v1290h164v-1290h-164z" />
<glyph unicode="&#x42c;" d="M166 0v1290h164v-514h237q22 0 44.5 -2.5t55.5 -12t62 -25.5t59.5 -46t52 -69.5t35 -99.5t13.5 -134q0 -178 -87 -282.5t-235 -104.5h-401zM330 152h231q16 0 35.5 5.5t43 22t42.5 41.5t32 69t13 99q0 44 -9 84.5t-27.5 75.5t-50.5 55.5t-73 20.5h-237v-473z" />
<glyph unicode="&#x42d;" d="M92 496h164q1 -67 13.5 -131.5t37.5 -122.5t68 -93.5t98 -35.5q58 0 103 35t70.5 86t41.5 117t21.5 119t5.5 101v37h-365v152h365v12q0 47 -7.5 99t-26 107.5t-45.5 99t-69 72t-94 28.5q-50 0 -89.5 -24t-61.5 -57.5t-36.5 -78.5t-19 -77t-6.5 -62h-154q1 87 23.5 165.5 t66 143t115.5 103t162 38.5q81 0 146.5 -31t107 -77t72 -113.5t45.5 -126.5t23.5 -131t10 -111t1.5 -82q0 -133 -16.5 -241.5t-42.5 -179.5t-63.5 -124t-73 -81t-78 -45t-72 -21t-60.5 -4q-85 0 -153 37t-109 93.5t-69 130.5t-38.5 141.5t-11.5 132.5z" />
<glyph unicode="&#x42e;" d="M68 0v1290h163v-526h76v16q0 255 93 402t225 147q27 0 53.5 -5.5t59 -23t60.5 -46t55.5 -79.5t47 -117.5t31.5 -165t12 -218.5q0 -191 -27 -333.5t-73 -223t-101 -118.5t-118 -38q-48 0 -93.5 21t-87.5 69.5t-73 120t-49.5 179t-18.5 239.5v22h-72v-612h-163zM467 680 q0 -39 2 -85t7 -115t16.5 -130t27.5 -116t42.5 -88t60.5 -33q78 0 117.5 156.5t39.5 410.5q0 130 -14.5 230.5t-38 156.5t-50 83.5t-54.5 27.5q-18 0 -36.5 -11t-41 -44t-39 -85.5t-28 -145t-11.5 -212.5z" />
<glyph unicode="&#x42f;" d="M88 0l240 522q-67 15 -119 75.5t-77.5 138.5t-25.5 157q0 30 2.5 60t11 70.5t22 76t39 71.5t59 61.5t84 41.5t112.5 16h387v-1290h-164v504h-174l-219 -504h-178zM270 897q0 -242 189 -242h200v484h-219q-170 0 -170 -242z" />
<glyph unicode="&#x430;" d="M98 262q0 72 25.5 126t53.5 83t88.5 51.5t88.5 28t95 16.5q7 1 10 2q21 3 46.5 6t38.5 5t29 4.5t23 5t15 6.5t11 9.5t5.5 13t3.5 18.5v45q-11 174 -154 174q-197 0 -182 -217h-152q-1 39 3.5 77.5t24.5 92t53.5 92t98.5 66.5t152 28q144 0 225.5 -85.5t81.5 -225.5v-471 q0 -55 4.5 -70.5t18.5 -17.5h10q21 0 57 8v-149q-50 -17 -96 -17q-60 0 -102.5 27.5t-42.5 64.5v9q-65 -101 -232 -101q-79 0 -139.5 27t-94.5 71.5t-50.5 94.5t-16.5 102zM262 266q0 -66 33.5 -113t112.5 -47q103 0 163 74t60 193v80q-25 -9 -49 -12.5t-75 -9.5t-112 -17 q-29 -5 -46.5 -10.5t-40.5 -20.5t-34.5 -44t-11.5 -73z" />
<glyph unicode="&#x431;" d="M119 549q0 238 35.5 390t105 230.5t182.5 104.5q30 7 70.5 11t66.5 6.5t51 10.5t36.5 28t9.5 54h147q6 -62 -10 -107.5t-44 -70t-72.5 -42t-83.5 -24.5t-89.5 -17.5t-79.5 -20.5q-135 -48 -153 -193l8 -2q46 51 92.5 69.5t120.5 18.5q175 0 276 -133.5t101 -380.5 q0 -236 -103 -375t-278 -139q-186 0 -287.5 150t-101.5 432zM283 475q0 -67 11.5 -129t36.5 -117.5t70.5 -89t106.5 -33.5q14 0 27 1.5t36 9.5t42.5 22t41 42.5t36 66.5t24.5 98.5t10 134.5q0 22 -1 43.5t-5.5 61t-13 73t-25 71.5t-38.5 64.5t-57.5 44t-78.5 17.5 q-61 0 -106 -32.5t-69.5 -89t-36 -121t-11.5 -138.5z" />
<glyph unicode="&#x432;" d="M170 0v958h369q280 0 280 -251q0 -65 -25.5 -118.5t-78.5 -76.5v-6q37 -8 64.5 -35t42 -63t21.5 -71.5t7 -68.5q0 -53 -13.5 -95.5t-34.5 -70t-51.5 -47.5t-58 -30.5t-61.5 -16t-55 -7t-44 -1.5h-362zM322 139h194q23 0 38 1t43 8t45 20.5t30.5 41t13.5 66.5 q0 160 -172 160h-192v-297zM322 575h190q17 0 34.5 3t45.5 13t45.5 37t17.5 68q0 26 -6.5 47t-14.5 34t-24 21.5t-24 12.5t-27 6t-21.5 2h-17.5h-198v-244z" />
<glyph unicode="&#x433;" d="M256 0v958h643v-139h-491v-819h-152z" />
<glyph unicode="&#x434;" d="M39 139h106q101 192 101 637v182h555v-819h127l-15 -370h-151v231h-557v-231h-152zM324 139h325v680h-252v-252q0 -83 -21 -205t-52 -223z" />
<glyph unicode="&#x435;" d="M92 477q0 109 23 201.5t69 164t121.5 112t173.5 40.5q93 0 164.5 -33t111.5 -81t65.5 -113.5t34 -119t9.5 -109.5l2 -101h-610q1 -40 8 -80.5t24 -87.5t43 -82t70.5 -58.5t100.5 -23.5q42 0 75.5 15t53.5 37.5t34 54.5t20 60t9 59h164q-5 -72 -29 -136t-67.5 -116 t-113 -82.5t-156.5 -30.5q-86 0 -155.5 31t-114 81.5t-75 118t-43 137t-12.5 142.5zM256 578h446q-1 32 -5.5 64t-18.5 72.5t-36 70t-61.5 50.5t-91.5 21q-30 0 -55 -5t-55.5 -22t-53 -46t-41.5 -81.5t-28 -123.5z" />
<glyph unicode="&#x436;" d="M0 0l266 500l-248 458h175l204 -399h13v399h151v-399h12l205 399h174l-247 -458l266 -500h-174l-224 438h-12v-438h-151v438h-13l-223 -438h-174z" />
<glyph unicode="&#x437;" d="M106 338h164q-1 -57 12.5 -100t34 -67.5t49.5 -39.5t54.5 -20t54.5 -5q209 0 209 173q0 42 -12.5 72.5t-29.5 46t-44 24t-47 10.5t-47 2h-105v139h93q27 0 47 2.5t49.5 12.5t46 36t16.5 66q0 31 -7.5 57.5t-26 52.5t-55.5 41t-89 15q-51 0 -88.5 -17t-56.5 -40.5 t-29.5 -54.5t-12.5 -52t-1 -41h-160q1 46 10 89.5t33.5 91t62 82.5t100 58t142.5 23q84 0 148.5 -23t100 -55.5t57.5 -75.5t29 -76.5t7 -64.5q0 -144 -100 -186v-6q68 -23 100.5 -89t32.5 -147q0 -61 -18 -110.5t-44.5 -80.5t-64.5 -54t-70 -34t-70.5 -17.5t-57 -7.5 t-36.5 -1q-72 0 -130.5 15t-97.5 39t-68.5 57.5t-45.5 66.5t-25 71t-12 66t-2 56z" />
<glyph unicode="&#x438;" d="M152 0v958h151v-653l381 653h135v-958h-151v647l-381 -647h-135z" />
<glyph unicode="&#x439;" d="M154 0v958h151v-653l381 653h135v-958h-151v647l-381 -647h-135zM250 1290h151q-4 -16 -0.5 -41.5t9.5 -50t26.5 -42t52.5 -17.5q30 0 50.5 16t30 40t12.5 48.5t0 46.5h151q3 -123 -63.5 -207t-177.5 -84q-64 0 -113.5 26t-77 68.5t-40.5 93t-11 103.5z" />
<glyph unicode="&#x43a;" d="M172 0v958h152v-391h20l389 391h211l-467 -448l486 -510h-205l-414 434h-20v-434h-152z" />
<glyph unicode="&#x43b;" d="M41 6v141h49q73 0 95 79.5t28 320.5l12 411h559v-958h-151v819h-252l-12 -276q-1 -17 -2 -56.5t-2 -66.5t-4.5 -69.5t-8 -73.5t-14.5 -69.5t-22.5 -66t-32 -56t-43.5 -46t-57.5 -28.5t-73.5 -11q-33 0 -68 6z" />
<glyph unicode="&#x43c;" d="M129 0v958h162l186 -487h21l184 487h164v-958h-152v578l-6 2l-166 -404h-67l-168 404h-6v-580h-152z" />
<glyph unicode="&#x43d;" d="M127 0v958h152v-372h413v372h152v-958h-152v446h-413v-446h-152z" />
<glyph unicode="&#x43e;" d="M96 489q0 122 27 215.5t67 147t93.5 87.5t100 45t93.5 11q58 0 112 -16t105.5 -54.5t89.5 -95t61 -144t23 -196.5q0 -50 -6.5 -101.5t-21.5 -113t-44.5 -114.5t-70 -97.5t-103.5 -70t-141 -25.5q-77 0 -140 26t-103.5 70.5t-69.5 97.5t-44 114.5t-21.5 113t-6.5 100.5z M260 483q0 -72 12.5 -137t37.5 -120t69 -87.5t102 -32.5q48 0 87 22.5t64 59t42 86t24 101.5t7 108q0 101 -21 181.5t-74 136t-133 55.5q-59 0 -102.5 -30t-68 -84t-35.5 -118t-11 -141z" />
<glyph unicode="&#x43f;" d="M156 0v958h659v-958h-151v819h-357v-819h-151z" />
<glyph unicode="&#x440;" d="M158 -319v1277h151v-51q79 88 205 88q72 0 135.5 -29.5t116 -89.5t83 -162.5t30.5 -236.5q0 -105 -21 -195t-63.5 -161.5t-113.5 -112.5t-165 -41q-153 0 -207 90v-376h-151zM309 473q0 -104 19.5 -180t52.5 -114.5t66.5 -55.5t70.5 -17q31 0 58 10t53.5 35.5t44.5 66 t29.5 107t11.5 152.5q0 78 -12 144.5t-36 120t-64 84t-93 30.5q-36 0 -69.5 -19t-64 -61t-49 -120t-18.5 -183z" />
<glyph unicode="&#x441;" d="M102 504q0 62 9 122.5t36 129t68.5 120t113 85.5t163.5 34q170 0 266.5 -106.5t87.5 -263.5h-160q2 38 -7 75.5t-29.5 74t-60.5 59t-95 22.5q-41 0 -78 -16.5t-72.5 -54t-56.5 -111t-21 -174.5q0 -198 69.5 -296t170.5 -98q57 0 98.5 28t61.5 73.5t28.5 90t7.5 89.5h164 q-1 -84 -24 -158.5t-66.5 -133.5t-113.5 -93.5t-158 -34.5q-94 0 -167 36t-116 91t-71 129t-38 142t-10 139z" />
<glyph unicode="&#x442;" d="M35 819v139h905v-139h-377v-819h-151v819h-377z" />
<glyph unicode="&#x443;" d="M55 958h166l299 -731h4l267 731h151l-395 -1110q-17 -47 -42 -82t-48 -52t-50 -27.5t-42 -12.5t-29 -2q-79 0 -143 15v176q59 -33 104 -33q35 0 51.5 6t34.5 34.5t39 92.5l18 55z" />
<glyph unicode="&#x444;" d="M74 481q0 240 95 367.5t241 132.5v309h151v-309q146 -5 241 -132.5t95 -367.5q0 -33 -2.5 -67.5t-11.5 -83t-23.5 -92.5t-40.5 -90t-60 -80.5t-85 -59.5t-113 -31v-296h-151v296q-62 6 -113 31t-85 59.5t-60 80.5t-40.5 90t-23.5 92.5t-11.5 83t-2.5 67.5zM238 483 q0 -30 1.5 -57t10.5 -81.5t25.5 -95t51.5 -78.5t83 -50v715q-83 -10 -127.5 -105t-44.5 -248zM561 121q48 12 83 50t51.5 78.5t25.5 95t10.5 81.5t1.5 57q0 153 -44.5 248t-127.5 105v-715z" />
<glyph unicode="&#x445;" d="M29 0l360 498l-332 460h193l237 -344l236 344h192l-331 -460l360 -498h-199l-258 383l-262 -383h-196z" />
<glyph unicode="&#x446;" d="M164 0v958h151v-819h347v819h151v-819h127l-10 -364h-142v225h-624z" />
<glyph unicode="&#x447;" d="M127 625v333h152v-319q0 -37 2.5 -53.5t16 -33.5t43 -22.5t81.5 -5.5q127 0 219 6v428h152v-958h-152v389q-127 -4 -180 -4q-95 0 -153 9t-101.5 35t-61.5 73t-18 123z" />
<glyph unicode="&#x448;" d="M90 0v958h152v-819h168v819h151v-819h168v819h152v-958h-791z" />
<glyph unicode="&#x449;" d="M96 0v958h152v-819h168v819h151v-819h168v819h152v-819h88l-10 -375h-142v236h-727z" />
<glyph unicode="&#x44a;" d="M16 819v139h344v-354h185q336 0 336 -307q0 -78 -23 -136t-54.5 -88t-76 -47.5t-75.5 -21.5t-66 -4h-377v819h-193zM360 139h205q16 0 30.5 1.5t38.5 11.5t40.5 26.5t29.5 51t13 81.5q0 32 -6 57.5t-14 41.5t-23 27t-26 16.5t-30 8.5t-28 3h-26h-9h-195v-326z" />
<glyph unicode="&#x44b;" d="M109 0v958h151v-354h111q26 0 45.5 -1t51.5 -7.5t55 -18t49.5 -34.5t43 -54.5t28 -80.5t11.5 -111q0 -61 -12 -110t-28.5 -79t-42.5 -52.5t-46.5 -32.5t-47 -16t-38.5 -6.5t-26 -0.5h-305zM260 139h133q11 0 21 2t25 12t26 27t19 51t8 80q0 49 -9 82t-26 47.5t-32.5 19.5 t-35.5 5h-129v-326zM711 0v958h151v-958h-151z" />
<glyph unicode="&#x44c;" d="M182 0v958h152v-354h188h9q360 3 360 -307q0 -59 -14 -106.5t-35 -78t-52 -53t-58 -33.5t-60 -17.5t-51.5 -7.5t-38.5 -1h-400zM334 139h207h26.5t31 3t37 8.5t33 18t31 30.5t19 46.5t8.5 65.5q0 29 -4 51.5t-15 38.5t-20.5 27.5t-29 18l-31.5 10.5t-37.5 5.5t-38 2 t-41.5 0.5h-176v-326z" />
<glyph unicode="&#x44d;" d="M104 365h160q14 -144 68 -201.5t153 -57.5q59 0 103 26t67 62.5t35.5 85.5t15 86t1.5 72h-334v140h332q-1 28 -5 56.5t-18 71t-37 73.5t-66 54t-100 23q-55 0 -94.5 -19t-59.5 -44.5t-30.5 -60t-12.5 -57t-1 -44.5h-164q2 44 11 86.5t33.5 95t62 91t102.5 65t149 26.5 q37 0 69.5 -4t74 -17.5t75.5 -35.5t67.5 -62.5t56.5 -94t37.5 -133t14.5 -177.5q0 -44 -3.5 -86t-14.5 -94t-28.5 -96t-47.5 -87t-69.5 -73.5t-97.5 -49t-128 -18.5q-78 0 -140.5 23t-103 60t-69.5 90t-43.5 107.5t-20.5 117.5z" />
<glyph unicode="&#x44e;" d="M102 0v958h152v-374h63q4 191 90.5 301t210.5 110q67 0 121 -34t87 -87t55.5 -122.5t31.5 -135t9 -129.5q0 -118 -19 -210.5t-49 -149.5t-71 -94t-81.5 -51.5t-83.5 -14.5q-132 0 -218.5 128.5t-90.5 348.5h-55v-444h-152zM473 483q0 -186 42.5 -281.5t100.5 -95.5 q24 0 46 15t45 52.5t37 117t14 192.5q0 92 -10.5 162t-26 109t-36 63t-37 31.5t-32.5 7.5q-61 0 -102 -89t-41 -284z" />
<glyph unicode="&#x44f;" d="M86 0l225 373q-54 17 -93.5 53.5t-58 81.5t-26.5 84.5t-8 77.5q0 37 8 74.5t29 76.5t52.5 69t83 49t116.5 19h401v-958h-151v360h-189l-203 -360h-186zM289 657q0 -89 39 -123t139 -34h197v319h-256q-53 0 -86 -46t-33 -116z" />
<glyph unicode="&#x451;" d="M92 477q0 109 23 201.5t69 164t121.5 112t173.5 40.5q93 0 164.5 -33t111.5 -81t65.5 -113.5t34 -119t9.5 -109.5l2 -101h-610q1 -40 8 -80.5t24 -87.5t43 -82t70.5 -58.5t100.5 -23.5q42 0 75.5 15t53.5 37.5t34 54.5t20 60t9 59h164q-5 -72 -29 -136t-67.5 -116 t-113 -82.5t-156.5 -30.5q-86 0 -155.5 31t-114 81.5t-75 118t-43 137t-12.5 142.5zM250 1067v223h164v-223h-164zM256 578h446q-1 32 -5.5 64t-18.5 72.5t-36 70t-61.5 50.5t-91.5 21q-30 0 -55 -5t-55.5 -22t-53 -46t-41.5 -81.5t-28 -123.5zM543 1067v223h164v-223h-164z " />
<glyph unicode="&#x452;" d="M-14 1047v139h188v104h152v-104h434v-139h-434v-154q51 56 106 74t121 18q42 0 78.5 -8.5t75 -32t65.5 -61t44.5 -100.5t17.5 -146v-502q0 -411 -408 -360v139h86q35 0 63 9.5t46 22.5t30.5 35t18 38.5t8.5 43.5t3.5 38.5t0.5 33.5v455v14q0 30 -0.5 46.5t-3 46t-7.5 47 t-15.5 39.5t-25.5 34t-38 20.5t-53 8.5q-22 0 -44.5 -5t-54.5 -23.5t-56 -49.5t-41 -88.5t-17 -134.5v-545h-152v1047h-188z" />
<glyph unicode="&#x453;" d="M256 0v958h643v-139h-491v-819h-152zM332 1067l55 303h254l-203 -303h-106z" />
<glyph unicode="&#x454;" d="M104 471q0 524 396 524q84 0 149 -26.5t102.5 -65t62 -91t33.5 -95t11 -86.5h-164q1 22 -1 44.5t-12.5 57t-30.5 60t-59.5 44.5t-94.5 19q-62 0 -108 -27t-70 -72t-35 -89t-13 -90h332v-140h-334q0 -89 19 -155t43.5 -98.5t59 -51.5t56 -23t43.5 -4q51 0 91 17t63.5 44 t38.5 62.5t19.5 68.5t3.5 67h163q-3 -48 -13 -95.5t-36 -104t-65 -99t-106.5 -71t-153.5 -28.5q-97 0 -170 35.5t-113.5 88t-66 124.5t-33 132t-7.5 124z" />
<glyph unicode="&#x455;" d="M113 324h163q-1 -27 2 -52.5t16 -57t36 -54.5t66 -38.5t100 -15.5q200 0 200 175q0 58 -35 81t-123 47l-12 3q-18 5 -51.5 13t-54.5 13.5t-52.5 15t-51.5 18t-46.5 22t-43.5 28t-35 35.5t-28.5 44.5t-17 54t-6.5 65.5q0 115 93 194.5t253 79.5q90 0 159 -28t108.5 -76 t59.5 -105t22 -122h-164q5 33 -1.5 65t-25.5 61.5t-60.5 47.5t-101.5 18q-78 0 -128 -36.5t-50 -108.5q0 -29 9.5 -50.5t27 -34t33 -18.5t37.5 -12q32 -9 81 -20.5t81.5 -18.5t74.5 -20.5t70 -26.5t57.5 -34.5t46.5 -47.5t28 -63t11 -82q0 -36 -6 -71t-29 -81.5t-60.5 -81 t-107 -58.5t-161.5 -24q-90 0 -159.5 24t-110.5 61t-67.5 86.5t-36 94.5t-9.5 91z" />
<glyph unicode="&#x456;" d="M143 0v139h267v680h-267v139h418v-819h266v-139h-684zM410 1063v227h151v-227h-151z" />
<glyph unicode="&#x457;" d="M143 0v139h267v680h-267v139h418v-819h266v-139h-684zM254 1067v223h164v-223h-164zM547 1067v223h164v-223h-164z" />
<glyph unicode="&#x458;" d="M84 -168q81 -18 145 -18q109 0 168.5 17t78 44.5t18.5 75.5v868h-306v139h457v-1015q0 -46 -6 -79.5t-29.5 -72t-65 -62t-116.5 -39.5t-180 -16q-87 0 -164 11v147zM494 1063v227h151v-227h-151z" />
<glyph unicode="&#x459;" d="M66 8v139l34 -2q17 -1 29.5 12.5t19 40t10.5 57t4.5 71.5t0 75t-1 76.5t-0.5 67.5l8 413h410v-354h75q22 0 36 -0.5t42.5 -6.5t48 -17t44.5 -33.5t40.5 -54t26 -82t10.5 -113.5q0 -82 -18 -141.5t-41.5 -88.5t-58 -45.5t-55 -19t-46.5 -2.5h-256v819h-106l-7 -264 q-1 -36 -2 -109q0 -53 -0.5 -80t-2.5 -75t-5.5 -72.5t-9.5 -62.5t-15.5 -56.5t-22.5 -43.5t-31.5 -35t-41 -18.5t-52.5 -6.5t-66 12zM580 139h86q73 0 73 172q0 51 -7.5 84.5t-20.5 47.5t-23.5 18t-23.5 4h-84v-326z" />
<glyph unicode="&#x45a;" d="M78 0v958h151v-372h189v372h151v-354h76q28 0 48.5 -2.5t52.5 -11t55 -29t45 -52.5t33.5 -86.5t11.5 -125.5q0 -76 -15.5 -132.5t-37.5 -87t-53.5 -49t-56.5 -23.5t-54 -5h-256v446h-189v-446h-151zM569 139h86q12 0 19 1.5t18.5 10.5t18 26t11.5 51t5 83q0 42 -5 72 t-11.5 45.5t-18 24t-20.5 10.5t-23 2h-80v-326z" />
<glyph unicode="&#x45b;" d="M-14 1044v140h188v106h152v-106h434v-140h-434v-157q57 98 227 98q130 0 205.5 -84.5t75.5 -263.5v-637h-152v590v14q0 30 -0.5 46.5t-3 46t-7.5 47t-15.5 39.5t-25.5 34t-38 20.5t-53 8.5q-22 0 -44.5 -5t-54.5 -23.5t-56 -49.5t-41 -88.5t-17 -134.5v-545h-152v1044 h-188z" />
<glyph unicode="&#x45c;" d="M172 0v958h152v-391h20l389 391h211l-467 -448l486 -510h-205l-414 434h-20v-434h-152zM332 1067l55 303h254l-203 -303h-106z" />
<glyph unicode="&#x45e;" d="M55 958h166l297 -725h8l265 725h151l-395 -1110q-16 -46 -40 -79.5t-47 -51.5t-50 -29t-45 -13.5t-37 -2.5q-74 0 -135 15v172q66 -29 108 -29q26 0 38 2.5t27 15t27.5 39.5t28.5 76l18 55zM272 1290h156q-4 -16 -0.5 -41.5t9.5 -50t26.5 -42t52.5 -17.5q48 0 70 36 t22 115h156q2 -48 -11 -97t-40.5 -93.5t-78.5 -72.5t-118 -28q-115 0 -182 84t-62 207z" />
<glyph unicode="&#x45f;" d="M162 0v958h151v-819h346v819h152v-958h-252v-225h-145v225h-252z" />
<glyph unicode="&#x490;" d="M236 0v1290h544v248h152v-399h-533v-1139h-163z" />
<glyph unicode="&#x491;" d="M256 0v958h506v209h139v-348h-493v-819h-152z" />
<glyph unicode="&#x2000;" horiz-adv-x="807" />
<glyph unicode="&#x2001;" horiz-adv-x="1614" />
<glyph unicode="&#x2002;" horiz-adv-x="807" />
<glyph unicode="&#x2003;" horiz-adv-x="1614" />
<glyph unicode="&#x2004;" horiz-adv-x="538" />
<glyph unicode="&#x2005;" horiz-adv-x="403" />
<glyph unicode="&#x2006;" horiz-adv-x="269" />
<glyph unicode="&#x2007;" horiz-adv-x="269" />
<glyph unicode="&#x2008;" horiz-adv-x="201" />
<glyph unicode="&#x2009;" horiz-adv-x="322" />
<glyph unicode="&#x200a;" horiz-adv-x="89" />
<glyph unicode="&#x2010;" d="M121 561v162h731v-162h-731z" />
<glyph unicode="&#x2011;" d="M121 561v162h731v-162h-731z" />
<glyph unicode="&#x2012;" d="M121 561v162h731v-162h-731z" />
<glyph unicode="&#x2013;" d="M100 561v162h772v-162h-772z" />
<glyph unicode="&#x2014;" d="M37 561v162h899v-162h-899z" />
<glyph unicode="&#x2018;" d="M276 850v227q0 32 4 63.5t17 69t33 63.5t55.5 40.5t81.5 7.5v-125q-23 3 -38.5 -5.5t-21.5 -24.5t-8 -26.5t-2 -19.5v-26h70v-244h-191z" />
<glyph unicode="&#x2019;" d="M276 846v131q36 -5 53 18.5t17 59.5v24h-70v242h191v-225q0 -131 -52.5 -193t-138.5 -57z" />
<glyph unicode="&#x201a;" d="M276 0v242h191v-226q0 -64 -13 -112t-32.5 -74t-46.5 -41.5t-50.5 -19t-48.5 -2.5v131q40 -1 56 24t16 55v23h-72z" />
<glyph unicode="&#x201c;" d="M201 850v266q0 111 55.5 161.5t136.5 47.5v-133q-34 7 -52.5 -15.5t-18.5 -60.5v-24h71v-242h-192zM545 850v266q0 111 55.5 161.5t136.5 47.5v-133q-34 7 -52.5 -15.5t-18.5 -60.5v-24h71v-242h-192z" />
<glyph unicode="&#x201d;" d="M205 846v135q21 -4 34 1t18.5 18.5t7 25t1.5 31.5v22h-61v242h188v-266q0 -94 -52 -152t-136 -57zM549 846v135q21 -4 34 1t18.5 18.5t7 25t1.5 31.5v22h-61v242h188v-266q0 -105 -54 -157t-134 -52z" />
<glyph unicode="&#x201e;" d="M227 0v242h193v-267q0 -111 -56 -161t-137 -47v133q34 -7 53 15.5t19 59.5v25h-72zM573 0v242h193v-267q0 -111 -56 -161t-137 -47v133q34 -7 53 15.5t19 59.5v25h-72z" />
<glyph unicode="&#x2020;" d="M115 711v163h288v416h164v-416h289v-163h-289v-1030h-164v1030h-288z" />
<glyph unicode="&#x2021;" d="M115 184v164h288v363h-288v163h288v416h164v-416h289v-163h-289v-363h289v-164h-289v-503h-164v503h-288z" />
<glyph unicode="&#x2022;" d="M215 688q0 108 79.5 189t190.5 81q112 0 191.5 -79.5t79.5 -190.5q0 -114 -79 -192t-192 -78q-110 0 -190 80t-80 190z" />
<glyph unicode="&#x2026;" d="M66 0v242h188v-242h-188zM391 0v242h189v-242h-189zM717 0v242h188v-242h-188z" />
<glyph unicode="&#x202f;" horiz-adv-x="322" />
<glyph unicode="&#x2030;" d="M-43 8l559 1274h135l-559 -1274h-135zM-4 1006q0 51 6 95t22 89.5t49 72.5t81 27t81.5 -27t50 -72.5t23 -90t6.5 -94.5q0 -155 -45 -220t-116 -65q-158 0 -158 285zM109 1006q0 -168 47 -168t47 168t-47 168t-47 -168zM297 285q0 51 6 95t22 89.5t49 72.5t81 27t81.5 -27 t50 -72.5t23 -90t6.5 -94.5q0 -155 -45 -220t-116 -65q-158 0 -158 285zM410 285q0 -168 47 -168t47 168t-47 168t-47 -168zM653 285q0 51 6 95t22 89.5t49 72.5t81 27t82 -27t50 -72t23 -90t7 -95q0 -155 -45.5 -220t-116.5 -65q-158 0 -158 285zM766 285q0 -168 47 -168 t47 168t-47 168t-47 -168z" />
<glyph unicode="&#x2039;" d="M340 440v148l293 270v-192l-164 -152l164 -152v-192z" />
<glyph unicode="&#x203a;" d="M340 170v192l164 152l-164 152v192l293 -270v-148z" />
<glyph unicode="&#x205f;" horiz-adv-x="403" />
<glyph unicode="&#x20ac;" d="M47 459l39 119h82q-2 16 -2 69q0 50 2 70h-121l39 117h92q27 231 136 358t309 127q90 0 161.5 -20.5t110.5 -49.5v-149q-89 82 -252 82q-137 0 -213 -93t-92 -255h483l-41 -117h-454q-2 -20 -2 -70q0 -51 2 -69h409l-41 -119h-356q19 -176 96.5 -265.5t210.5 -89.5 q153 0 250 82v-149q-35 -28 -105.5 -48t-168.5 -20q-385 0 -441 490h-133z" />
<glyph unicode="&#x2122;" d="M43 1188v86h365v-86h-136v-393h-94v393h-135zM479 795v479h121l105 -318l100 318h123v-479h-94v278l-93 -278h-77l-91 278v-278h-94z" />
<glyph unicode="&#xe000;" horiz-adv-x="962" d="M0 0v963h963v-963h-963z" />
</font>
</defs>
</svg>
