<?xml version="1.0" encoding="utf-8"?>
<!-- Generator: Adobe Illustrator 16.0.0, SVG Export Plug-In . SVG Version: 6.00 Build 0)  -->
<!DOCTYPE svg PUBLIC "-//W3C//DTD SVG 1.1//EN" "http://www.w3.org/Graphics/SVG/1.1/DTD/svg11.dtd">
<svg version="1.1" id="Слой_1" xmlns="http://www.w3.org/2000/svg" xmlns:xlink="http://www.w3.org/1999/xlink" x="0px" y="0px"
	 width="19px" height="19px" viewBox="0 0 19 19" enable-background="new 0 0 19 19" xml:space="preserve">
<g>
	<defs>
		<rect id="SVGID_1_" width="19" height="19"/>
	</defs>
	<clipPath id="SVGID_2_">
		<use xlink:href="#SVGID_1_"  overflow="visible"/>
	</clipPath>
	<path clip-path="url(#SVGID_2_)" fill="#FFFFFF" d="M2.008,1C1.547,1.013,1,1.197,1,2v15c0.012,0.449,0.195,1,1,1h15
		c0.45-0.012,1-0.195,1-1V2c-0.012-0.45-0.195-1-1-1H2.008z"/>
	<path clip-path="url(#SVGID_2_)" fill="none" stroke="#5299FC" stroke-width="2" stroke-miterlimit="10" d="M2.008,1
		C1.547,1.013,1,1.197,1,2v15c0.012,0.449,0.195,1,1,1h15c0.45-0.012,1-0.195,1-1V2c-0.012-0.45-0.195-1-1-1H2.008z"/>
</g>
</svg>
