<?xml version="1.0" encoding="utf-8"?>
<!-- Generator: Adobe Illustrator 16.0.0, SVG Export Plug-In . SVG Version: 6.00 Build 0)  -->
<!DOCTYPE svg PUBLIC "-//W3C//DTD SVG 1.1//EN" "http://www.w3.org/Graphics/SVG/1.1/DTD/svg11.dtd">
<svg version="1.1" id="Слой_1" xmlns="http://www.w3.org/2000/svg" xmlns:xlink="http://www.w3.org/1999/xlink" x="0px" y="0px"
	 width="19px" height="19px" viewBox="0 0 19 19" enable-background="new 0 0 19 19" xml:space="preserve">
<g>
	<defs>
		<rect id="SVGID_1_" width="19" height="19"/>
	</defs>
	<clipPath id="SVGID_2_">
		<use xlink:href="#SVGID_1_"  overflow="visible"/>
	</clipPath>
	<path clip-path="url(#SVGID_2_)" fill="#5299FC" d="M9.5,0C4.253,0,0,4.253,0,9.5C0,14.747,4.253,19,9.5,19S19,14.747,19,9.5
		C19,4.253,14.747,0,9.5,0"/>
	<path clip-path="url(#SVGID_2_)" fill="#5299FC" d="M9.5,0C4.253,0,0,4.253,0,9.5C0,14.747,4.253,19,9.5,19S19,14.747,19,9.5
		C19,4.253,14.747,0,9.5,0"/>
	<path clip-path="url(#SVGID_2_)" fill="#FFFFFF" d="M9.5,1C4.806,1,1,4.806,1,9.5C1,14.194,4.806,18,9.5,18
		c4.693,0,8.5-3.807,8.5-8.5C18,4.806,14.193,1,9.5,1"/>
	<circle clip-path="url(#SVGID_2_)" fill="none" stroke="#5299FC" stroke-miterlimit="10" cx="9.5" cy="9.5" r="8.5"/>
	<path clip-path="url(#SVGID_2_)" fill="#5299FC" d="M9.5,5.291c-2.324,0-4.209,1.885-4.209,4.208c0,2.326,1.885,4.21,4.209,4.21
		s4.209-1.885,4.209-4.21C13.709,7.176,11.824,5.291,9.5,5.291"/>
</g>
</svg>
