<?xml version="1.0" encoding="utf-8"?>
<!-- Generator: Adobe Illustrator 15.1.0, SVG Export Plug-In  -->
<!DOCTYPE svg PUBLIC "-//W3C//DTD SVG 1.1//EN" "http://www.w3.org/Graphics/SVG/1.1/DTD/svg11.dtd" [
	<!ENTITY ns_flows "http://ns.adobe.com/Flows/1.0/">
]>
<svg version="1.1"
	 xmlns="http://www.w3.org/2000/svg" xmlns:xlink="http://www.w3.org/1999/xlink" xmlns:a="http://ns.adobe.com/AdobeSVGViewerExtensions/3.0/"
	 x="0px" y="0px" width="154px" height="21px" viewBox="0 0 154 21" enable-background="new 0 0 154 21" xml:space="preserve">
<defs>
</defs>
<g>
	<defs>
		<rect id="SVGID_1_" width="154" height="21"/>
	</defs>
	<clipPath id="SVGID_2_">
		<use xlink:href="#SVGID_1_"  overflow="visible"/>
	</clipPath>
	<path clip-path="url(#SVGID_2_)" fill="#5299FC" d="M143.721,0h-4.477v19.716h4.477v-8.507c0-0.981,0.258-1.963,0.68-2.531
		c0.299-0.429,0.993-1.036,2.183-1.036c0.483,0,1.077,0.089,1.494,0.635c0.166,0.227,0.459,0.749,0.459,2.097v9.343H153V9.967
		c0-1.229-0.123-2.926-1.263-4.022c-0.813-0.798-2.22-1.174-3.494-1.174c-1.16,0-2.171,0.289-3.199,1.011
		c-0.556,0.396-0.988,0.857-1.323,1.375V0z M136.985,10.258c-0.181-1.459-0.893-2.985-1.997-3.965
		c-1.145-1.006-2.838-1.522-4.59-1.522c-1.941,0-3.68,0.719-4.845,1.724c-1.174,1.001-2.425,2.902-2.425,5.918
		c0,2.499,0.895,4.575,2.25,5.801c0.761,0.723,2.368,1.787,4.932,1.787c2.302,0,3.781-0.832,4.62-1.519
		c1.076-0.926,1.874-2.357,2.086-3.999l-4.024-0.401c-0.014,0.718-0.254,1.519-0.653,2.1c-0.534,0.775-1.064,0.938-1.843,0.938
		c-0.731,0-1.442-0.163-2.039-1.141c-0.411-0.691-0.674-1.695-0.674-3.595c0-2.273,0.376-3.16,0.645-3.585
		c0.441-0.697,1.192-1.157,2.028-1.157c0.85,0,1.53,0.437,1.924,0.946c0.326,0.467,0.559,1.33,0.599,2.047L136.985,10.258z
		 M110.579,10.803c0-0.885,0.32-1.719,0.818-2.24c0.555-0.542,1.353-0.921,2.296-0.921c1.164,0,1.854,0.547,2.271,1.096
		c0.412,0.572,0.634,1.373,0.597,2.065H110.579z M116.799,14.854c-0.123,0.579-0.391,1.095-0.742,1.442
		c-0.432,0.396-1.144,0.823-2.249,0.823c-1.442,0-2.266-0.718-2.73-1.547c-0.354-0.633-0.53-1.52-0.498-2.327h10.564v-0.749
		c0-2.472-0.843-4.22-1.764-5.282c-1.02-1.183-2.838-2.443-5.753-2.443c-1.354,0-3.259,0.204-5.03,1.637
		c-1.201,0.978-2.704,2.787-2.704,6.005c0,2.758,1.149,4.544,2.194,5.547c1.137,1.097,2.99,2.041,5.52,2.041
		c2.019,0,3.667-0.52,4.877-1.317c0.896-0.61,2.01-1.675,2.514-3.453L116.799,14.854z M91.65,0v3.616h4.844v16.1h4.784v-16.1h4.867
		V0H91.65z M90.296,10.29H49.98v3.447h40.315V10.29z M33.184,11.236h3.746c0.775,0,1.795,0.058,2.549,0.778
		c0.568,0.54,0.688,1.23,0.688,1.723c0,0.517-0.1,1.262-0.811,1.835c-0.721,0.578-1.68,0.639-2.305,0.639h-3.867V11.236z
		 M33.184,3.446h3.418c0.805,0,1.732,0.094,2.362,0.523c0.626,0.427,0.775,1.033,0.775,1.667c0,0.597-0.179,1.142-0.716,1.604
		c-0.752,0.636-1.617,0.659-2.512,0.659h-3.328V3.446z M28.389,0v19.716h9.8c1.579,0,3.56-0.18,5.084-1.466
		c0.876-0.716,1.771-2.02,1.771-4.053c0-1.893-0.837-3.048-1.702-3.739c-0.665-0.519-1.5-0.887-2.37-1.031V9.365
		c0.836-0.254,1.794-0.803,2.37-1.402c0.654-0.723,1.135-1.868,1.135-3.02c0-1.637-0.719-2.934-1.711-3.703
		C41.211,0.028,39.084,0,37.797,0H28.389z M0,0l5.482,19.716h4.25l3.387-12.647l3.477,12.647h4.25L26.088,0h-3.809l-3.296,13.217
		L15.312,0h-3.81L8.054,13.217L4.641,0H0z"/>
</g>
</svg>
