<svg xmlns="http://www.w3.org/2000/svg" xmlns:xlink="http://www.w3.org/1999/xlink" viewBox="0 0 16 16" width="16" height="16">
<path fill="#FFFFFF" d="M1.977,0H0v1.998C0,0.895,0.885,0,1.977,0z"/>
<path fill="#FFFFFF" d="M1.977,16C0.885,16,0,15.105,0,14.002V16H1.977z"/>
<path fill="#FFFFFF" d="M14.022,16H16v-1.998C16,15.105,15.115,16,14.022,16z"/>
<path fill="#FFFFFF" d="M14.022,9.996H1.977C0.885,9.996,0,9.102,0,7.998v6.004c0-1.104,0.885-1.998,1.977-1.998h12.045 c1.093,0,1.978,0.895,1.978,1.998V7.998C16,9.102,15.115,9.996,14.022,9.996z"/>
<path fill="#FFFFFF" d="M14.022,3.996H1.977C0.885,3.996,0,3.102,0,1.998v6C0,6.895,0.885,6,1.977,6h12.045 C15.115,6,16,6.895,16,7.998v-6C16,3.102,15.115,3.996,14.022,3.996z"/>
<path fill="#FFFFFF" d="M14.022,0C15.115,0,16,0.895,16,1.998V0H14.022z"/>
</svg>
